<?xml version="1.0" encoding="UTF-8"?><svg xmlns="http://www.w3.org/2000/svg" xmlns:xlink="http://www.w3.org/1999/xlink" fill-opacity="1" color-rendering="auto" color-interpolation="auto" text-rendering="auto" stroke="black" stroke-linecap="square" width="331" stroke-miterlimit="10" shape-rendering="auto" stroke-opacity="1" fill="black" stroke-dasharray="none" font-weight="normal" stroke-width="1" height="261" font-family="'Dialog'" font-style="normal" stroke-linejoin="miter" font-size="12px" stroke-dashoffset="0" image-rendering="auto">
  <!--Generated by ySVG 2.5-->
  <defs id="genericDefs"/>
  <g>
    <defs id="defs1">
      <clipPath clipPathUnits="userSpaceOnUse" id="clipPath1">
        <path d="M0 0 L331 0 L331 261 L0 261 L0 0 Z"/>
      </clipPath>
      <clipPath clipPathUnits="userSpaceOnUse" id="clipPath2">
        <path d="M335 168 L666 168 L666 429 L335 429 L335 168 Z"/>
      </clipPath>
    </defs>
    <g fill="white" text-rendering="geometricPrecision" shape-rendering="geometricPrecision" transform="translate(-335,-168)" stroke="white">
      <rect x="335" width="331" height="261" y="168" clip-path="url(#clipPath2)" stroke="none"/>
    </g>
    <g text-rendering="geometricPrecision" stroke-miterlimit="1.45" shape-rendering="geometricPrecision" transform="matrix(1,0,0,1,-335,-168)" stroke-linecap="butt">
      <rect fill="none" x="367.2742" width="119.2653" height="209.0195" y="183.3175" clip-path="url(#clipPath2)"/>
      <text x="399.9504" xml:space="preserve" y="202.0337" clip-path="url(#clipPath2)" font-family="sans-serif" stroke="none">lista client</text>
    </g>
    <g fill="silver" text-rendering="geometricPrecision" shape-rendering="geometricPrecision" transform="matrix(1,0,0,1,-335,-168)" stroke="silver">
      <rect x="374.4759" width="61.184" height="13.2403" y="232.6081" clip-path="url(#clipPath2)" stroke="none"/>
    </g>
    <g text-rendering="geometricPrecision" stroke-miterlimit="1.45" shape-rendering="geometricPrecision" transform="matrix(1,0,0,1,-335,-168)" stroke-linecap="butt">
      <rect fill="none" x="374.4759" width="61.184" height="13.2403" y="232.6081" clip-path="url(#clipPath2)"/>
      <text x="381.1641" font-size="10px" y="243.1564" clip-path="url(#clipPath2)" font-family="sans-serif" stroke="none" xml:space="preserve">info client1</text>
    </g>
    <g fill="silver" text-rendering="geometricPrecision" shape-rendering="geometricPrecision" transform="matrix(1,0,0,1,-335,-168)" stroke="silver">
      <rect x="435.6599" width="42.4526" height="13.2403" y="232.6081" clip-path="url(#clipPath2)" stroke="none"/>
    </g>
    <g text-rendering="geometricPrecision" stroke-miterlimit="1.45" shape-rendering="geometricPrecision" transform="matrix(1,0,0,1,-335,-168)" stroke-linecap="butt">
      <rect fill="none" x="435.6599" width="42.4526" height="13.2403" y="232.6081" clip-path="url(#clipPath2)"/>
      <text x="437.9873" font-size="10px" y="243.1564" clip-path="url(#clipPath2)" font-family="sans-serif" stroke="none" xml:space="preserve">comandi</text>
    </g>
    <g fill="silver" text-rendering="geometricPrecision" shape-rendering="geometricPrecision" transform="matrix(1,0,0,1,-335,-168)" stroke="silver">
      <rect x="374.4759" width="61.184" height="13.2403" y="245.8484" clip-path="url(#clipPath2)" stroke="none"/>
    </g>
    <g text-rendering="geometricPrecision" stroke-miterlimit="1.45" shape-rendering="geometricPrecision" transform="matrix(1,0,0,1,-335,-168)" stroke-linecap="butt">
      <rect fill="none" x="374.4759" width="61.184" height="13.2403" y="245.8484" clip-path="url(#clipPath2)"/>
      <text x="381.1641" font-size="10px" y="256.3968" clip-path="url(#clipPath2)" font-family="sans-serif" stroke="none" xml:space="preserve">info client2</text>
    </g>
    <g fill="silver" text-rendering="geometricPrecision" shape-rendering="geometricPrecision" transform="matrix(1,0,0,1,-335,-168)" stroke="silver">
      <rect x="435.6599" width="42.4526" height="13.2403" y="245.8484" clip-path="url(#clipPath2)" stroke="none"/>
    </g>
    <g text-rendering="geometricPrecision" stroke-miterlimit="1.45" shape-rendering="geometricPrecision" transform="matrix(1,0,0,1,-335,-168)" stroke-linecap="butt">
      <rect fill="none" x="435.6599" width="42.4526" height="13.2403" y="245.8484" clip-path="url(#clipPath2)"/>
      <text x="437.9873" font-size="10px" y="256.3968" clip-path="url(#clipPath2)" font-family="sans-serif" stroke="none" xml:space="preserve">comandi</text>
    </g>
    <g fill="silver" text-rendering="geometricPrecision" shape-rendering="geometricPrecision" transform="matrix(1,0,0,1,-335,-168)" stroke="silver">
      <rect x="374.4759" width="61.184" height="13.2403" y="259.0887" clip-path="url(#clipPath2)" stroke="none"/>
    </g>
    <g text-rendering="geometricPrecision" stroke-miterlimit="1.45" shape-rendering="geometricPrecision" transform="matrix(1,0,0,1,-335,-168)" stroke-linecap="butt">
      <rect fill="none" x="374.4759" width="61.184" height="13.2403" y="259.0887" clip-path="url(#clipPath2)"/>
      <text x="381.1641" font-size="10px" y="269.6371" clip-path="url(#clipPath2)" font-family="sans-serif" stroke="none" xml:space="preserve">info client3</text>
    </g>
    <g fill="silver" text-rendering="geometricPrecision" shape-rendering="geometricPrecision" transform="matrix(1,0,0,1,-335,-168)" stroke="silver">
      <rect x="435.6599" width="42.4526" height="13.2403" y="259.0887" clip-path="url(#clipPath2)" stroke="none"/>
    </g>
    <g text-rendering="geometricPrecision" stroke-miterlimit="1.45" shape-rendering="geometricPrecision" transform="matrix(1,0,0,1,-335,-168)" stroke-linecap="butt">
      <rect fill="none" x="435.6599" width="42.4526" height="13.2403" y="259.0887" clip-path="url(#clipPath2)"/>
      <text x="437.9873" font-size="10px" y="269.6371" clip-path="url(#clipPath2)" font-family="sans-serif" stroke="none" xml:space="preserve">comandi</text>
    </g>
    <g fill="silver" text-rendering="geometricPrecision" shape-rendering="geometricPrecision" transform="matrix(1,0,0,1,-335,-168)" stroke="silver">
      <rect x="374.4759" width="103.6366" height="13.2403" y="212.3579" clip-path="url(#clipPath2)" stroke="none"/>
    </g>
    <g text-rendering="geometricPrecision" stroke-miterlimit="1.45" shape-rendering="geometricPrecision" transform="matrix(1,0,0,1,-335,-168)" stroke-linecap="butt">
      <rect fill="none" x="374.4759" width="103.6366" height="13.2403" y="212.3579" clip-path="url(#clipPath2)"/>
      <text x="406.8337" font-size="10px" y="222.9063" clip-path="url(#clipPath2)" font-family="sans-serif" stroke="none" xml:space="preserve">aggiorna</text>
    </g>
    <g fill="silver" text-rendering="geometricPrecision" shape-rendering="geometricPrecision" transform="matrix(1,0,0,1,-335,-168)" stroke="silver">
      <rect x="374.4759" width="61.184" height="13.2403" y="272.329" clip-path="url(#clipPath2)" stroke="none"/>
    </g>
    <g text-rendering="geometricPrecision" stroke-miterlimit="1.45" shape-rendering="geometricPrecision" transform="matrix(1,0,0,1,-335,-168)" stroke-linecap="butt">
      <rect fill="none" x="374.4759" width="61.184" height="13.2403" y="272.329" clip-path="url(#clipPath2)"/>
      <text x="380.6099" font-size="10px" y="282.8774" clip-path="url(#clipPath2)" font-family="sans-serif" stroke="none" xml:space="preserve">info clientX</text>
    </g>
    <g fill="silver" text-rendering="geometricPrecision" shape-rendering="geometricPrecision" transform="matrix(1,0,0,1,-335,-168)" stroke="silver">
      <rect x="435.6599" width="42.4526" height="13.2403" y="272.329" clip-path="url(#clipPath2)" stroke="none"/>
    </g>
    <g text-rendering="geometricPrecision" stroke-miterlimit="1.45" shape-rendering="geometricPrecision" transform="matrix(1,0,0,1,-335,-168)" stroke-linecap="butt">
      <rect fill="none" x="435.6599" width="42.4526" height="13.2403" y="272.329" clip-path="url(#clipPath2)"/>
      <text x="437.9873" font-size="10px" y="282.8774" clip-path="url(#clipPath2)" font-family="sans-serif" stroke="none" xml:space="preserve">comandi</text>
    </g>
    <g fill="silver" text-rendering="geometricPrecision" shape-rendering="geometricPrecision" transform="matrix(1,0,0,1,-335,-168)" stroke="silver">
      <rect x="519.7736" width="119.2653" height="209.0195" y="183.3175" clip-path="url(#clipPath2)" stroke="none"/>
    </g>
    <g text-rendering="geometricPrecision" stroke-miterlimit="1.45" shape-rendering="geometricPrecision" transform="matrix(1,0,0,1,-335,-168)" stroke-linecap="butt">
      <rect fill="none" x="519.7736" width="119.2653" height="209.0195" y="183.3175" clip-path="url(#clipPath2)"/>
    </g>
    <g fill="white" text-rendering="geometricPrecision" shape-rendering="geometricPrecision" transform="matrix(1,0,0,1,-335,-168)" stroke="white">
      <rect x="528.1249" width="102.5628" height="192.4849" y="191.5956" clip-path="url(#clipPath2)" stroke="none"/>
    </g>
    <g text-rendering="geometricPrecision" stroke-miterlimit="1.45" shape-rendering="geometricPrecision" transform="matrix(1,0,0,1,-335,-168)" stroke-linecap="butt">
      <rect fill="none" x="528.1249" width="102.5628" height="192.4849" y="191.5956" clip-path="url(#clipPath2)"/>
    </g>
    <g fill="silver" text-rendering="geometricPrecision" shape-rendering="geometricPrecision" transform="matrix(1,0,0,1,-335,-168)" stroke="silver">
      <rect x="591.8317" width="34.2606" height="11.2742" y="368.1743" clip-path="url(#clipPath2)" stroke="none"/>
    </g>
    <g text-rendering="geometricPrecision" stroke-miterlimit="1.45" shape-rendering="geometricPrecision" transform="matrix(1,0,0,1,-335,-168)" stroke-linecap="butt">
      <rect fill="none" x="591.8317" width="34.2606" height="11.2742" y="368.1743" clip-path="url(#clipPath2)"/>
      <text x="595.898" font-size="10px" y="377.7397" clip-path="url(#clipPath2)" font-family="sans-serif" stroke="none" xml:space="preserve">chiudi</text>
    </g>
    <g fill="white" text-rendering="geometricPrecision" shape-rendering="geometricPrecision" transform="matrix(1,0,0,1,-335,-168)" stroke="white">
      <rect x="533.7427" width="90.1018" height="45.0804" y="211.3075" clip-path="url(#clipPath2)" stroke="none"/>
    </g>
    <g text-rendering="geometricPrecision" stroke-miterlimit="1.45" shape-rendering="geometricPrecision" transform="matrix(1,0,0,1,-335,-168)" stroke-linecap="butt">
      <rect fill="none" x="533.7427" width="90.1018" height="45.0804" y="211.3075" clip-path="url(#clipPath2)"/>
    </g>
    <g fill="silver" text-rendering="geometricPrecision" shape-rendering="geometricPrecision" transform="matrix(1,0,0,1,-335,-168)" stroke="silver">
      <rect x="539.2409" width="45.4291" height="13.2403" y="217.7856" clip-path="url(#clipPath2)" stroke="none"/>
    </g>
    <g text-rendering="geometricPrecision" stroke-miterlimit="1.45" shape-rendering="geometricPrecision" transform="matrix(1,0,0,1,-335,-168)" stroke-linecap="butt">
      <rect fill="none" x="539.2409" width="45.4291" height="13.2403" y="217.7856" clip-path="url(#clipPath2)"/>
      <text x="542.7758" font-size="10px" y="228.334" clip-path="url(#clipPath2)" font-family="sans-serif" stroke="none" xml:space="preserve">modulo1</text>
    </g>
    <g fill="silver" text-rendering="geometricPrecision" shape-rendering="geometricPrecision" transform="matrix(1,0,0,1,-335,-168)" stroke="silver">
      <rect x="584.6701" width="32.8843" height="13.2403" y="217.7856" clip-path="url(#clipPath2)" stroke="none"/>
    </g>
    <g text-rendering="geometricPrecision" stroke-miterlimit="1.45" shape-rendering="geometricPrecision" transform="matrix(1,0,0,1,-335,-168)" stroke-linecap="butt">
      <rect fill="none" x="584.6701" width="32.8843" height="13.2403" y="217.7856" clip-path="url(#clipPath2)"/>
      <text x="587.4892" font-size="10px" y="228.334" clip-path="url(#clipPath2)" font-family="sans-serif" stroke="none" xml:space="preserve">toggle</text>
    </g>
    <g fill="silver" text-rendering="geometricPrecision" shape-rendering="geometricPrecision" transform="matrix(1,0,0,1,-335,-168)" stroke="silver">
      <rect x="539.2409" width="45.4291" height="13.2403" y="237.0332" clip-path="url(#clipPath2)" stroke="none"/>
    </g>
    <g text-rendering="geometricPrecision" stroke-miterlimit="1.45" shape-rendering="geometricPrecision" transform="matrix(1,0,0,1,-335,-168)" stroke-linecap="butt">
      <rect fill="none" x="539.2409" width="45.4291" height="13.2403" y="237.0332" clip-path="url(#clipPath2)"/>
      <text x="542.2216" font-size="10px" y="247.5816" clip-path="url(#clipPath2)" font-family="sans-serif" stroke="none" xml:space="preserve">moduloX</text>
    </g>
    <g fill="silver" text-rendering="geometricPrecision" shape-rendering="geometricPrecision" transform="matrix(1,0,0,1,-335,-168)" stroke="silver">
      <rect x="584.6701" width="32.8843" height="13.2403" y="237.0332" clip-path="url(#clipPath2)" stroke="none"/>
    </g>
    <g text-rendering="geometricPrecision" stroke-miterlimit="1.45" shape-rendering="geometricPrecision" transform="matrix(1,0,0,1,-335,-168)" stroke-linecap="butt">
      <rect fill="none" x="584.6701" width="32.8843" height="13.2403" y="237.0332" clip-path="url(#clipPath2)"/>
      <text x="587.4892" font-size="10px" y="247.5816" clip-path="url(#clipPath2)" font-family="sans-serif" stroke="none" xml:space="preserve">toggle</text>
    </g>
    <g fill="white" text-rendering="geometricPrecision" shape-rendering="geometricPrecision" transform="matrix(1,0,0,1,-335,-168)" stroke="white">
      <rect x="533.7427" width="90.1018" height="22.7326" y="263.0431" clip-path="url(#clipPath2)" stroke="none"/>
    </g>
    <g text-rendering="geometricPrecision" stroke-miterlimit="1.45" shape-rendering="geometricPrecision" transform="matrix(1,0,0,1,-335,-168)" stroke-linecap="butt">
      <rect fill="none" x="533.7427" width="90.1018" height="22.7326" y="263.0431" clip-path="url(#clipPath2)"/>
      <text x="552.444" xml:space="preserve" y="279.1233" clip-path="url(#clipPath2)" font-family="sans-serif" stroke="none">Inventario</text>
    </g>
    <g fill="white" text-rendering="geometricPrecision" shape-rendering="geometricPrecision" transform="matrix(1,0,0,1,-335,-168)" stroke="white">
      <rect x="533.7427" width="90.1018" height="57.873" y="306.1116" clip-path="url(#clipPath2)" stroke="none"/>
    </g>
    <g text-rendering="geometricPrecision" stroke-miterlimit="1.45" shape-rendering="geometricPrecision" transform="matrix(1,0,0,1,-335,-168)" stroke-linecap="butt">
      <rect fill="none" x="533.7427" width="90.1018" height="57.873" y="306.1116" clip-path="url(#clipPath2)"/>
    </g>
    <g fill="silver" text-rendering="geometricPrecision" shape-rendering="geometricPrecision" transform="matrix(1,0,0,1,-335,-168)" stroke="silver">
      <rect x="537.8965" width="51.7206" height="13.2403" y="312.4321" clip-path="url(#clipPath2)" stroke="none"/>
    </g>
    <g text-rendering="geometricPrecision" stroke-miterlimit="1.45" shape-rendering="geometricPrecision" transform="matrix(1,0,0,1,-335,-168)" stroke-linecap="butt">
      <rect fill="none" x="537.8965" width="51.7206" height="13.2403" y="312.4321" clip-path="url(#clipPath2)"/>
      <text x="540.6831" font-size="10px" y="322.9804" clip-path="url(#clipPath2)" font-family="sans-serif" stroke="none" xml:space="preserve">info conn1</text>
    </g>
    <g fill="silver" text-rendering="geometricPrecision" shape-rendering="geometricPrecision" transform="matrix(1,0,0,1,-335,-168)" stroke="silver">
      <rect x="589.6171" width="29.7386" height="13.2403" y="312.4321" clip-path="url(#clipPath2)" stroke="none"/>
    </g>
    <g text-rendering="geometricPrecision" stroke-miterlimit="1.45" shape-rendering="geometricPrecision" transform="matrix(1,0,0,1,-335,-168)" stroke-linecap="butt">
      <rect fill="none" x="589.6171" width="29.7386" height="13.2403" y="312.4321" clip-path="url(#clipPath2)"/>
      <text x="590.8633" font-size="10px" y="322.9804" clip-path="url(#clipPath2)" font-family="sans-serif" stroke="none" xml:space="preserve">toggle</text>
    </g>
    <g fill="silver" text-rendering="geometricPrecision" shape-rendering="geometricPrecision" transform="matrix(1,0,0,1,-335,-168)" stroke="silver">
      <rect x="537.8965" width="51.7206" height="13.2403" y="328.4279" clip-path="url(#clipPath2)" stroke="none"/>
    </g>
    <g text-rendering="geometricPrecision" stroke-miterlimit="1.45" shape-rendering="geometricPrecision" transform="matrix(1,0,0,1,-335,-168)" stroke-linecap="butt">
      <rect fill="none" x="537.8965" width="51.7206" height="13.2403" y="328.4279" clip-path="url(#clipPath2)"/>
      <text x="540.6831" font-size="10px" y="338.9763" clip-path="url(#clipPath2)" font-family="sans-serif" stroke="none" xml:space="preserve">info conn2</text>
    </g>
    <g fill="silver" text-rendering="geometricPrecision" shape-rendering="geometricPrecision" transform="matrix(1,0,0,1,-335,-168)" stroke="silver">
      <rect x="589.6171" width="29.7386" height="13.2403" y="328.4279" clip-path="url(#clipPath2)" stroke="none"/>
    </g>
    <g text-rendering="geometricPrecision" stroke-miterlimit="1.45" shape-rendering="geometricPrecision" transform="matrix(1,0,0,1,-335,-168)" stroke-linecap="butt">
      <rect fill="none" x="589.6171" width="29.7386" height="13.2403" y="328.4279" clip-path="url(#clipPath2)"/>
      <text x="590.8633" font-size="10px" y="338.9763" clip-path="url(#clipPath2)" font-family="sans-serif" stroke="none" xml:space="preserve">toggle</text>
    </g>
    <g fill="silver" text-rendering="geometricPrecision" shape-rendering="geometricPrecision" transform="matrix(1,0,0,1,-335,-168)" stroke="silver">
      <rect x="533.7427" width="57.2174" height="13.2403" y="292.8713" clip-path="url(#clipPath2)" stroke="none"/>
    </g>
    <g text-rendering="geometricPrecision" stroke-miterlimit="1.45" shape-rendering="geometricPrecision" transform="matrix(1,0,0,1,-335,-168)" stroke-linecap="butt">
      <rect fill="none" x="533.7427" width="57.2174" height="13.2403" y="292.8713" clip-path="url(#clipPath2)"/>
      <text x="552.9008" font-size="10px" y="303.4196" clip-path="url(#clipPath2)" font-family="sans-serif" stroke="none" xml:space="preserve">fase</text>
    </g>
    <g fill="silver" text-rendering="geometricPrecision" shape-rendering="geometricPrecision" transform="matrix(1,0,0,1,-335,-168)" stroke="silver">
      <rect x="590.9602" width="32.8843" height="13.2403" y="292.8713" clip-path="url(#clipPath2)" stroke="none"/>
    </g>
    <g text-rendering="geometricPrecision" stroke-miterlimit="1.45" shape-rendering="geometricPrecision" transform="matrix(1,0,0,1,-335,-168)" stroke-linecap="butt">
      <rect fill="none" x="590.9602" width="32.8843" height="13.2403" y="292.8713" clip-path="url(#clipPath2)"/>
      <text x="593.7793" font-size="10px" y="303.4196" clip-path="url(#clipPath2)" font-family="sans-serif" stroke="none" xml:space="preserve">toggle</text>
    </g>
    <g fill="silver" text-rendering="geometricPrecision" shape-rendering="geometricPrecision" transform="matrix(1,0,0,1,-335,-168)" stroke="silver">
      <rect x="537.8965" width="51.7206" height="13.2403" y="344.4238" clip-path="url(#clipPath2)" stroke="none"/>
    </g>
    <g text-rendering="geometricPrecision" stroke-miterlimit="1.45" shape-rendering="geometricPrecision" transform="matrix(1,0,0,1,-335,-168)" stroke-linecap="butt">
      <rect fill="none" x="537.8965" width="51.7206" height="13.2403" y="344.4238" clip-path="url(#clipPath2)"/>
      <text x="540.1289" font-size="10px" y="354.9722" clip-path="url(#clipPath2)" font-family="sans-serif" stroke="none" xml:space="preserve">info connX</text>
    </g>
    <g fill="silver" text-rendering="geometricPrecision" shape-rendering="geometricPrecision" transform="matrix(1,0,0,1,-335,-168)" stroke="silver">
      <rect x="589.6171" width="29.7386" height="13.2403" y="344.4238" clip-path="url(#clipPath2)" stroke="none"/>
    </g>
    <g text-rendering="geometricPrecision" stroke-miterlimit="1.45" shape-rendering="geometricPrecision" transform="matrix(1,0,0,1,-335,-168)" stroke-linecap="butt">
      <rect fill="none" x="589.6171" width="29.7386" height="13.2403" y="344.4238" clip-path="url(#clipPath2)"/>
      <text x="590.8633" font-size="10px" y="354.9722" clip-path="url(#clipPath2)" font-family="sans-serif" stroke="none" xml:space="preserve">toggle</text>
      <text x="537.4381" xml:space="preserve" y="206.0782" clip-path="url(#clipPath2)" font-family="sans-serif" stroke="none">Gestione Butler</text>
      <text x="352.9648" xml:space="preserve" y="408.7062" clip-path="url(#clipPath2)" font-family="sans-serif" stroke="none">Sezione centro di controllo</text>
      <text x="532.7083" xml:space="preserve" y="408.7062" clip-path="url(#clipPath2)" font-family="sans-serif" stroke="none">Modal di dettaglio</text>
    </g>
  </g>
</svg>
