<?xml version="1.0" encoding="UTF-8"?><svg xmlns="http://www.w3.org/2000/svg" xmlns:xlink="http://www.w3.org/1999/xlink" fill-opacity="1" color-rendering="auto" color-interpolation="auto" text-rendering="auto" stroke="black" stroke-linecap="square" width="1151" stroke-miterlimit="10" shape-rendering="auto" stroke-opacity="1" fill="black" stroke-dasharray="none" font-weight="normal" stroke-width="1" height="887" font-family="'Dialog'" font-style="normal" stroke-linejoin="miter" font-size="12px" stroke-dashoffset="0" image-rendering="auto">
  <!--Generated by ySVG 2.5-->
  <defs id="genericDefs"/>
  <g>
    <defs id="defs1">
      <linearGradient x1="-107.5241" gradientUnits="userSpaceOnUse" x2="-20.6633" y1="343.516" y2="388.636" id="linearGradient1" spreadMethod="reflect">
        <stop stop-opacity="1" stop-color="rgb(255,153,204)" offset="0%"/>
        <stop stop-opacity="1" stop-color="rgb(255,153,204)" offset="100%"/>
      </linearGradient>
      <linearGradient x1="-129.7961" gradientUnits="userSpaceOnUse" x2="1.6087" y1="432.3056" y2="504.7648" id="linearGradient2" spreadMethod="reflect">
        <stop stop-opacity="1" stop-color="rgb(232,238,247)" offset="0%"/>
        <stop stop-opacity="1" stop-color="rgb(183,201,227)" offset="100%"/>
      </linearGradient>
      <linearGradient x1="-129.7961" gradientUnits="userSpaceOnUse" x2="1.6087" y1="743.2106" y2="815.6698" id="linearGradient3" spreadMethod="reflect">
        <stop stop-opacity="1" stop-color="rgb(232,238,247)" offset="0%"/>
        <stop stop-opacity="1" stop-color="rgb(183,201,227)" offset="100%"/>
      </linearGradient>
      <linearGradient x1="-129.7961" gradientUnits="userSpaceOnUse" x2="1.6087" y1="845.6698" y2="918.129" id="linearGradient4" spreadMethod="reflect">
        <stop stop-opacity="1" stop-color="rgb(232,238,247)" offset="0%"/>
        <stop stop-opacity="1" stop-color="rgb(183,201,227)" offset="100%"/>
      </linearGradient>
      <linearGradient x1="-129.7961" gradientUnits="userSpaceOnUse" x2="1.6087" y1="639.0529" y2="711.5121" id="linearGradient5" spreadMethod="reflect">
        <stop stop-opacity="1" stop-color="rgb(232,238,247)" offset="0%"/>
        <stop stop-opacity="1" stop-color="rgb(183,201,227)" offset="100%"/>
      </linearGradient>
      <linearGradient x1="-129.7961" gradientUnits="userSpaceOnUse" x2="1.6087" y1="534.7648" y2="607.224" id="linearGradient6" spreadMethod="reflect">
        <stop stop-opacity="1" stop-color="rgb(232,238,247)" offset="0%"/>
        <stop stop-opacity="1" stop-color="rgb(183,201,227)" offset="100%"/>
      </linearGradient>
      <linearGradient x1="124.9177" gradientUnits="userSpaceOnUse" x2="211.7785" y1="343.516" y2="388.636" id="linearGradient7" spreadMethod="reflect">
        <stop stop-opacity="1" stop-color="rgb(255,153,204)" offset="0%"/>
        <stop stop-opacity="1" stop-color="rgb(255,153,204)" offset="100%"/>
      </linearGradient>
      <linearGradient x1="102.6458" gradientUnits="userSpaceOnUse" x2="234.0506" y1="432.3056" y2="504.7648" id="linearGradient8" spreadMethod="reflect">
        <stop stop-opacity="1" stop-color="rgb(232,238,247)" offset="0%"/>
        <stop stop-opacity="1" stop-color="rgb(183,201,227)" offset="100%"/>
      </linearGradient>
      <linearGradient x1="102.6458" gradientUnits="userSpaceOnUse" x2="234.0506" y1="743.2106" y2="815.6698" id="linearGradient9" spreadMethod="reflect">
        <stop stop-opacity="1" stop-color="rgb(232,238,247)" offset="0%"/>
        <stop stop-opacity="1" stop-color="rgb(183,201,227)" offset="100%"/>
      </linearGradient>
      <linearGradient x1="102.6458" gradientUnits="userSpaceOnUse" x2="234.0506" y1="639.0529" y2="711.5121" id="linearGradient10" spreadMethod="reflect">
        <stop stop-opacity="1" stop-color="rgb(232,238,247)" offset="0%"/>
        <stop stop-opacity="1" stop-color="rgb(183,201,227)" offset="100%"/>
      </linearGradient>
      <linearGradient x1="102.6458" gradientUnits="userSpaceOnUse" x2="234.0506" y1="948.129" y2="1020.5882" id="linearGradient11" spreadMethod="reflect">
        <stop stop-opacity="1" stop-color="rgb(232,238,247)" offset="0%"/>
        <stop stop-opacity="1" stop-color="rgb(183,201,227)" offset="100%"/>
      </linearGradient>
      <linearGradient x1="102.6458" gradientUnits="userSpaceOnUse" x2="234.0506" y1="534.7648" y2="607.224" id="linearGradient12" spreadMethod="reflect">
        <stop stop-opacity="1" stop-color="rgb(232,238,247)" offset="0%"/>
        <stop stop-opacity="1" stop-color="rgb(183,201,227)" offset="100%"/>
      </linearGradient>
      <linearGradient x1="102.6458" gradientUnits="userSpaceOnUse" x2="234.0506" y1="845.6698" y2="918.129" id="linearGradient13" spreadMethod="reflect">
        <stop stop-opacity="1" stop-color="rgb(232,238,247)" offset="0%"/>
        <stop stop-opacity="1" stop-color="rgb(183,201,227)" offset="100%"/>
      </linearGradient>
      <linearGradient x1="102.6458" gradientUnits="userSpaceOnUse" x2="234.0506" y1="1050.5881" y2="1123.0474" id="linearGradient14" spreadMethod="reflect">
        <stop stop-opacity="1" stop-color="rgb(232,238,247)" offset="0%"/>
        <stop stop-opacity="1" stop-color="rgb(183,201,227)" offset="100%"/>
      </linearGradient>
      <linearGradient x1="-339.966" gradientUnits="userSpaceOnUse" x2="-253.1052" y1="343.516" y2="388.636" id="linearGradient15" spreadMethod="reflect">
        <stop stop-opacity="1" stop-color="rgb(255,153,204)" offset="0%"/>
        <stop stop-opacity="1" stop-color="rgb(255,153,204)" offset="100%"/>
      </linearGradient>
      <linearGradient x1="-362.2379" gradientUnits="userSpaceOnUse" x2="-230.8332" y1="432.3056" y2="504.7648" id="linearGradient16" spreadMethod="reflect">
        <stop stop-opacity="1" stop-color="rgb(232,238,247)" offset="0%"/>
        <stop stop-opacity="1" stop-color="rgb(183,201,227)" offset="100%"/>
      </linearGradient>
      <linearGradient x1="-362.2379" gradientUnits="userSpaceOnUse" x2="-230.8332" y1="639.0529" y2="711.5121" id="linearGradient17" spreadMethod="reflect">
        <stop stop-opacity="1" stop-color="rgb(232,238,247)" offset="0%"/>
        <stop stop-opacity="1" stop-color="rgb(183,201,227)" offset="100%"/>
      </linearGradient>
      <linearGradient x1="-362.2379" gradientUnits="userSpaceOnUse" x2="-230.8332" y1="743.2106" y2="815.6698" id="linearGradient18" spreadMethod="reflect">
        <stop stop-opacity="1" stop-color="rgb(232,238,247)" offset="0%"/>
        <stop stop-opacity="1" stop-color="rgb(183,201,227)" offset="100%"/>
      </linearGradient>
      <linearGradient x1="-362.2379" gradientUnits="userSpaceOnUse" x2="-230.8332" y1="845.6698" y2="918.129" id="linearGradient19" spreadMethod="reflect">
        <stop stop-opacity="1" stop-color="rgb(232,238,247)" offset="0%"/>
        <stop stop-opacity="1" stop-color="rgb(183,201,227)" offset="100%"/>
      </linearGradient>
      <linearGradient x1="-362.2379" gradientUnits="userSpaceOnUse" x2="-230.8332" y1="534.7648" y2="607.224" id="linearGradient20" spreadMethod="reflect">
        <stop stop-opacity="1" stop-color="rgb(232,238,247)" offset="0%"/>
        <stop stop-opacity="1" stop-color="rgb(183,201,227)" offset="100%"/>
      </linearGradient>
      <clipPath clipPathUnits="userSpaceOnUse" id="clipPath1">
        <path d="M0 0 L1151 0 L1151 887 L0 887 L0 0 Z"/>
      </clipPath>
      <clipPath clipPathUnits="userSpaceOnUse" id="clipPath2">
        <path d="M-868 277 L283 277 L283 1164 L-868 1164 L-868 277 Z"/>
      </clipPath>
    </defs>
    <g fill="white" text-rendering="geometricPrecision" shape-rendering="geometricPrecision" transform="translate(868,-277)" stroke="white">
      <rect x="-868" width="1151" height="887" y="277" clip-path="url(#clipPath2)" stroke="none"/>
    </g>
    <g fill="url(#linearGradient1)" text-rendering="geometricPrecision" shape-rendering="geometricPrecision" transform="matrix(1,0,0,1,868,-277)" stroke="url(#linearGradient1)">
      <ellipse rx="43.4304" ry="22.56" clip-path="url(#clipPath2)" cx="-64.0937" cy="366.076" stroke="none"/>
    </g>
    <g text-rendering="geometricPrecision" stroke-miterlimit="1.45" shape-rendering="geometricPrecision" transform="matrix(1,0,0,1,868,-277)" stroke-linecap="butt">
      <ellipse rx="43.4304" fill="none" ry="22.56" clip-path="url(#clipPath2)" cx="-64.0937" cy="366.076"/>
      <text x="-78.1005" xml:space="preserve" y="370.7899" clip-path="url(#clipPath2)" font-family="sans-serif" stroke="none">Inizio</text>
    </g>
    <g fill="url(#linearGradient2)" text-rendering="geometricPrecision" shape-rendering="geometricPrecision" transform="matrix(1,0,0,1,868,-277)" stroke="url(#linearGradient2)">
      <path d="M-111.319 432.3056 L1.6087 432.3056 L-16.8684 504.7648 L-129.7961 504.7648 Z" stroke="none" clip-path="url(#clipPath2)"/>
    </g>
    <g text-rendering="geometricPrecision" stroke-miterlimit="1.45" shape-rendering="geometricPrecision" transform="matrix(1,0,0,1,868,-277)" stroke-linecap="butt">
      <path fill="none" d="M-111.319 432.3056 L1.6087 432.3056 L-16.8684 504.7648 L-129.7961 504.7648 Z" clip-path="url(#clipPath2)"/>
      <text x="-109.7822" xml:space="preserve" y="458.5479" clip-path="url(#clipPath2)" font-family="sans-serif" stroke="none">Avvio automatico</text>
      <text x="-101.5966" xml:space="preserve" y="473.2491" clip-path="url(#clipPath2)" font-family="sans-serif" stroke="none">all'accensione</text>
      <text x="-98.7783" xml:space="preserve" y="487.9502" clip-path="url(#clipPath2)" font-family="sans-serif" stroke="none">del computer</text>
    </g>
    <g fill="url(#linearGradient3)" text-rendering="geometricPrecision" shape-rendering="geometricPrecision" transform="matrix(1,0,0,1,868,-277)" stroke="url(#linearGradient3)">
      <path d="M-64.0937 743.2106 L1.6087 779.4402 L-64.0937 815.6698 L-129.7961 779.4402 Z" stroke="none" clip-path="url(#clipPath2)"/>
    </g>
    <g text-rendering="geometricPrecision" stroke-miterlimit="1.45" shape-rendering="geometricPrecision" transform="matrix(1,0,0,1,868,-277)" stroke-linecap="butt">
      <path fill="none" d="M-64.0937 743.2106 L1.6087 779.4402 L-64.0937 815.6698 L-129.7961 779.4402 Z" clip-path="url(#clipPath2)"/>
      <text x="-88.4394" xml:space="preserve" y="769.4529" clip-path="url(#clipPath2)" font-family="sans-serif" stroke="none">Il modulo</text>
      <text x="-96.4462" xml:space="preserve" y="784.1541" clip-path="url(#clipPath2)" font-family="sans-serif" stroke="none">di inventario</text>
      <text x="-86.7753" xml:space="preserve" y="798.8552" clip-path="url(#clipPath2)" font-family="sans-serif" stroke="none">è attivo?</text>
    </g>
    <g fill="url(#linearGradient4)" text-rendering="geometricPrecision" shape-rendering="geometricPrecision" transform="matrix(1,0,0,1,868,-277)" stroke="url(#linearGradient4)">
      <path d="M-129.7961 845.6698 L1.6087 845.6698 L1.6087 918.129 L-129.7961 918.129 Z" stroke="none" clip-path="url(#clipPath2)"/>
    </g>
    <g text-rendering="geometricPrecision" stroke-miterlimit="1.45" shape-rendering="geometricPrecision" transform="matrix(1,0,0,1,868,-277)" stroke-linecap="butt">
      <path fill="none" d="M-129.7961 845.6698 L1.6087 845.6698 L1.6087 918.129 L-129.7961 918.129 Z" clip-path="url(#clipPath2)"/>
      <text x="-110.7812" xml:space="preserve" y="871.912" clip-path="url(#clipPath2)" font-family="sans-serif" stroke="none">Invio informazioni</text>
      <text x="-100.5947" xml:space="preserve" y="886.6132" clip-path="url(#clipPath2)" font-family="sans-serif" stroke="none">dell'inventario</text>
      <text x="-87.1005" xml:space="preserve" y="901.3144" clip-path="url(#clipPath2)" font-family="sans-serif" stroke="none">al server</text>
    </g>
    <g fill="url(#linearGradient5)" text-rendering="geometricPrecision" shape-rendering="geometricPrecision" transform="matrix(1,0,0,1,868,-277)" stroke="url(#linearGradient5)">
      <path d="M-129.7961 639.0529 L1.6087 639.0529 L1.6087 711.5121 L-129.7961 711.5121 Z" stroke="none" clip-path="url(#clipPath2)"/>
    </g>
    <g text-rendering="geometricPrecision" stroke-miterlimit="1.45" shape-rendering="geometricPrecision" transform="matrix(1,0,0,1,868,-277)" stroke-linecap="butt">
      <path fill="none" d="M-129.7961 639.0529 L1.6087 639.0529 L1.6087 711.5121 L-129.7961 711.5121 Z" clip-path="url(#clipPath2)"/>
      <text x="-116.7841" xml:space="preserve" y="672.6458" clip-path="url(#clipPath2)" font-family="sans-serif" stroke="none">Attesa cambiamenti</text>
      <text x="-91.4423" xml:space="preserve" y="687.3469" clip-path="url(#clipPath2)" font-family="sans-serif" stroke="none">nei moduli</text>
    </g>
    <g fill="url(#linearGradient6)" text-rendering="geometricPrecision" shape-rendering="geometricPrecision" transform="matrix(1,0,0,1,868,-277)" stroke="url(#linearGradient6)">
      <path d="M-129.7961 534.7648 L1.6087 534.7648 L1.6087 607.224 L-129.7961 607.224 Z" stroke="none" clip-path="url(#clipPath2)"/>
    </g>
    <g text-rendering="geometricPrecision" stroke-miterlimit="1.45" shape-rendering="geometricPrecision" transform="matrix(1,0,0,1,868,-277)" stroke-linecap="butt">
      <path fill="none" d="M-129.7961 534.7648 L1.6087 534.7648 L1.6087 607.224 L-129.7961 607.224 Z" clip-path="url(#clipPath2)"/>
      <text x="-123.7919" xml:space="preserve" y="575.7083" clip-path="url(#clipPath2)" font-family="sans-serif" stroke="none">Connessione al server</text>
    </g>
    <g text-rendering="geometricPrecision" stroke-miterlimit="1.45" shape-rendering="geometricPrecision" font-family="sans-serif" transform="matrix(1,0,0,1,868,-277)" stroke-linecap="butt">
      <text x="-83.9063" xml:space="preserve" y="831.9779" clip-path="url(#clipPath2)" stroke="none">Sì</text>
    </g>
    <g text-rendering="geometricPrecision" stroke-miterlimit="1.45" shape-rendering="geometricPrecision" font-family="sans-serif" transform="matrix(1,0,0,1,868,-277)" stroke-linecap="butt">
      <text x="9.4733" xml:space="preserve" y="772.2758" clip-path="url(#clipPath2)" stroke="none">No</text>
    </g>
    <g fill="url(#linearGradient7)" text-rendering="geometricPrecision" shape-rendering="geometricPrecision" transform="matrix(1,0,0,1,868,-277)" stroke="url(#linearGradient7)">
      <ellipse rx="43.4304" ry="22.56" clip-path="url(#clipPath2)" cx="168.3481" cy="366.076" stroke="none"/>
    </g>
    <g text-rendering="geometricPrecision" stroke-miterlimit="1.45" shape-rendering="geometricPrecision" transform="matrix(1,0,0,1,868,-277)" stroke-linecap="butt">
      <ellipse rx="43.4304" fill="none" ry="22.56" clip-path="url(#clipPath2)" cx="168.3481" cy="366.076"/>
      <text x="154.3413" xml:space="preserve" y="370.7899" clip-path="url(#clipPath2)" font-family="sans-serif" stroke="none">Inizio</text>
    </g>
    <g fill="url(#linearGradient8)" text-rendering="geometricPrecision" shape-rendering="geometricPrecision" transform="matrix(1,0,0,1,868,-277)" stroke="url(#linearGradient8)">
      <path d="M121.1228 432.3056 L234.0506 432.3056 L215.5735 504.7648 L102.6458 504.7648 Z" stroke="none" clip-path="url(#clipPath2)"/>
    </g>
    <g text-rendering="geometricPrecision" stroke-miterlimit="1.45" shape-rendering="geometricPrecision" transform="matrix(1,0,0,1,868,-277)" stroke-linecap="butt">
      <path fill="none" d="M121.1228 432.3056 L234.0506 432.3056 L215.5735 504.7648 L102.6458 504.7648 Z" clip-path="url(#clipPath2)"/>
      <text x="122.6597" xml:space="preserve" y="458.5479" clip-path="url(#clipPath2)" font-family="sans-serif" stroke="none">Avvio automatico</text>
      <text x="130.8452" xml:space="preserve" y="473.2491" clip-path="url(#clipPath2)" font-family="sans-serif" stroke="none">all'accensione</text>
      <text x="133.6636" xml:space="preserve" y="487.9502" clip-path="url(#clipPath2)" font-family="sans-serif" stroke="none">del computer</text>
    </g>
    <g fill="url(#linearGradient9)" text-rendering="geometricPrecision" shape-rendering="geometricPrecision" transform="matrix(1,0,0,1,868,-277)" stroke="url(#linearGradient9)">
      <path d="M168.3481 743.2106 L234.0506 779.4402 L168.3481 815.6698 L102.6458 779.4402 Z" stroke="none" clip-path="url(#clipPath2)"/>
    </g>
    <g text-rendering="geometricPrecision" stroke-miterlimit="1.45" shape-rendering="geometricPrecision" transform="matrix(1,0,0,1,868,-277)" stroke-linecap="butt">
      <path fill="none" d="M168.3481 743.2106 L234.0506 779.4402 L168.3481 815.6698 L102.6458 779.4402 Z" clip-path="url(#clipPath2)"/>
      <text x="144.0024" xml:space="preserve" y="769.4529" clip-path="url(#clipPath2)" font-family="sans-serif" stroke="none">Il modulo</text>
      <text x="120.3247" xml:space="preserve" y="784.1541" clip-path="url(#clipPath2)" font-family="sans-serif" stroke="none">di comportamento</text>
      <text x="145.6665" xml:space="preserve" y="798.8552" clip-path="url(#clipPath2)" font-family="sans-serif" stroke="none">è attivo?</text>
    </g>
    <g fill="url(#linearGradient10)" text-rendering="geometricPrecision" shape-rendering="geometricPrecision" transform="matrix(1,0,0,1,868,-277)" stroke="url(#linearGradient10)">
      <path d="M102.6458 639.0529 L234.0506 639.0529 L234.0506 711.5121 L102.6458 711.5121 Z" stroke="none" clip-path="url(#clipPath2)"/>
    </g>
    <g text-rendering="geometricPrecision" stroke-miterlimit="1.45" shape-rendering="geometricPrecision" transform="matrix(1,0,0,1,868,-277)" stroke-linecap="butt">
      <path fill="none" d="M102.6458 639.0529 L234.0506 639.0529 L234.0506 711.5121 L102.6458 711.5121 Z" clip-path="url(#clipPath2)"/>
      <text x="115.6577" xml:space="preserve" y="672.6458" clip-path="url(#clipPath2)" font-family="sans-serif" stroke="none">Attesa cambiamenti</text>
      <text x="140.9995" xml:space="preserve" y="687.3469" clip-path="url(#clipPath2)" font-family="sans-serif" stroke="none">nei moduli</text>
    </g>
    <g fill="url(#linearGradient11)" text-rendering="geometricPrecision" shape-rendering="geometricPrecision" transform="matrix(1,0,0,1,868,-277)" stroke="url(#linearGradient11)">
      <path d="M102.6458 948.129 L234.0506 948.129 L234.0506 1020.5882 L102.6458 1020.5882 Z" stroke="none" clip-path="url(#clipPath2)"/>
    </g>
    <g text-rendering="geometricPrecision" stroke-miterlimit="1.45" shape-rendering="geometricPrecision" transform="matrix(1,0,0,1,868,-277)" stroke-linecap="butt">
      <path fill="none" d="M102.6458 948.129 L234.0506 948.129 L234.0506 1020.5882 L102.6458 1020.5882 Z" clip-path="url(#clipPath2)"/>
      <text x="118.3208" xml:space="preserve" y="974.3713" clip-path="url(#clipPath2)" font-family="sans-serif" stroke="none">Creazione modello</text>
      <text x="122.3169" xml:space="preserve" y="989.0724" clip-path="url(#clipPath2)" font-family="sans-serif" stroke="none">delle connessioni</text>
      <text x="144.9985" xml:space="preserve" y="1003.7736" clip-path="url(#clipPath2)" font-family="sans-serif" stroke="none">standard</text>
    </g>
    <g text-rendering="geometricPrecision" stroke-miterlimit="1.45" shape-rendering="geometricPrecision" font-family="sans-serif" transform="matrix(1,0,0,1,868,-277)" stroke-linecap="butt">
      <text x="243.0569" xml:space="preserve" y="877.0181" clip-path="url(#clipPath2)" stroke="none">No</text>
    </g>
    <g text-rendering="geometricPrecision" stroke-miterlimit="1.45" shape-rendering="geometricPrecision" font-family="sans-serif" transform="matrix(1,0,0,1,868,-277)" stroke-linecap="butt">
      <text x="177.3758" xml:space="preserve" y="936.4518" clip-path="url(#clipPath2)" stroke="none">Sì</text>
    </g>
    <g fill="url(#linearGradient12)" text-rendering="geometricPrecision" shape-rendering="geometricPrecision" transform="matrix(1,0,0,1,868,-277)" stroke="url(#linearGradient12)">
      <path d="M102.6458 534.7648 L234.0506 534.7648 L234.0506 607.224 L102.6458 607.224 Z" stroke="none" clip-path="url(#clipPath2)"/>
    </g>
    <g text-rendering="geometricPrecision" stroke-miterlimit="1.45" shape-rendering="geometricPrecision" transform="matrix(1,0,0,1,868,-277)" stroke-linecap="butt">
      <path fill="none" d="M102.6458 534.7648 L234.0506 534.7648 L234.0506 607.224 L102.6458 607.224 Z" clip-path="url(#clipPath2)"/>
      <text x="108.6499" xml:space="preserve" y="575.7083" clip-path="url(#clipPath2)" font-family="sans-serif" stroke="none">Connessione al server</text>
    </g>
    <g fill="url(#linearGradient13)" text-rendering="geometricPrecision" shape-rendering="geometricPrecision" transform="matrix(1,0,0,1,868,-277)" stroke="url(#linearGradient13)">
      <path d="M168.3481 845.6698 L234.0506 881.8994 L168.3481 918.129 L102.6458 881.8994 Z" stroke="none" clip-path="url(#clipPath2)"/>
    </g>
    <g text-rendering="geometricPrecision" stroke-miterlimit="1.45" shape-rendering="geometricPrecision" transform="matrix(1,0,0,1,868,-277)" stroke-linecap="butt">
      <path fill="none" d="M168.3481 845.6698 L234.0506 881.8994 L168.3481 918.129 L102.6458 881.8994 Z" clip-path="url(#clipPath2)"/>
      <text x="126.6587" xml:space="preserve" y="886.6132" clip-path="url(#clipPath2)" font-family="sans-serif" stroke="none">Fase di analisi?</text>
    </g>
    <g fill="url(#linearGradient14)" text-rendering="geometricPrecision" shape-rendering="geometricPrecision" transform="matrix(1,0,0,1,868,-277)" stroke="url(#linearGradient14)">
      <path d="M102.6458 1050.5881 L234.0506 1050.5881 L234.0506 1123.0474 L102.6458 1123.0474 Z" stroke="none" clip-path="url(#clipPath2)"/>
    </g>
    <g text-rendering="geometricPrecision" stroke-miterlimit="1.45" shape-rendering="geometricPrecision" transform="matrix(1,0,0,1,868,-277)" stroke-linecap="butt">
      <path fill="none" d="M102.6458 1050.5881 L234.0506 1050.5881 L234.0506 1123.0474 L102.6458 1123.0474 Z" clip-path="url(#clipPath2)"/>
      <text x="108.3218" xml:space="preserve" y="1091.5316" clip-path="url(#clipPath2)" font-family="sans-serif" stroke="none">Invio modello al server</text>
    </g>
    <g fill="url(#linearGradient15)" text-rendering="geometricPrecision" shape-rendering="geometricPrecision" transform="matrix(1,0,0,1,868,-277)" stroke="url(#linearGradient15)">
      <ellipse rx="43.4304" ry="22.56" clip-path="url(#clipPath2)" cx="-296.5356" cy="366.076" stroke="none"/>
    </g>
    <g text-rendering="geometricPrecision" stroke-miterlimit="1.45" shape-rendering="geometricPrecision" transform="matrix(1,0,0,1,868,-277)" stroke-linecap="butt">
      <ellipse rx="43.4304" fill="none" ry="22.56" clip-path="url(#clipPath2)" cx="-296.5356" cy="366.076"/>
      <text x="-310.5424" xml:space="preserve" y="370.7899" clip-path="url(#clipPath2)" font-family="sans-serif" stroke="none">Inizio</text>
    </g>
    <g fill="url(#linearGradient16)" text-rendering="geometricPrecision" shape-rendering="geometricPrecision" transform="matrix(1,0,0,1,868,-277)" stroke="url(#linearGradient16)">
      <path d="M-343.7609 432.3056 L-230.8332 432.3056 L-249.3103 504.7648 L-362.2379 504.7648 Z" stroke="none" clip-path="url(#clipPath2)"/>
    </g>
    <g text-rendering="geometricPrecision" stroke-miterlimit="1.45" shape-rendering="geometricPrecision" transform="matrix(1,0,0,1,868,-277)" stroke-linecap="butt">
      <path fill="none" d="M-343.7609 432.3056 L-230.8332 432.3056 L-249.3103 504.7648 L-362.2379 504.7648 Z" clip-path="url(#clipPath2)"/>
      <text x="-342.224" xml:space="preserve" y="458.5479" clip-path="url(#clipPath2)" font-family="sans-serif" stroke="none">Avvio automatico</text>
      <text x="-334.0385" xml:space="preserve" y="473.2491" clip-path="url(#clipPath2)" font-family="sans-serif" stroke="none">all'accensione</text>
      <text x="-331.2201" xml:space="preserve" y="487.9502" clip-path="url(#clipPath2)" font-family="sans-serif" stroke="none">del computer</text>
    </g>
    <g fill="url(#linearGradient17)" text-rendering="geometricPrecision" shape-rendering="geometricPrecision" transform="matrix(1,0,0,1,868,-277)" stroke="url(#linearGradient17)">
      <path d="M-362.2379 639.0529 L-230.8332 639.0529 L-230.8332 711.5121 L-362.2379 711.5121 Z" stroke="none" clip-path="url(#clipPath2)"/>
    </g>
    <g text-rendering="geometricPrecision" stroke-miterlimit="1.45" shape-rendering="geometricPrecision" transform="matrix(1,0,0,1,868,-277)" stroke-linecap="butt">
      <path fill="none" d="M-362.2379 639.0529 L-230.8332 639.0529 L-230.8332 711.5121 L-362.2379 711.5121 Z" clip-path="url(#clipPath2)"/>
      <text x="-349.226" xml:space="preserve" y="672.6458" clip-path="url(#clipPath2)" font-family="sans-serif" stroke="none">Attesa cambiamenti</text>
      <text x="-323.8842" xml:space="preserve" y="687.3469" clip-path="url(#clipPath2)" font-family="sans-serif" stroke="none">nei moduli</text>
    </g>
    <g text-rendering="geometricPrecision" stroke-miterlimit="1.45" shape-rendering="geometricPrecision" font-family="sans-serif" transform="matrix(1,0,0,1,868,-277)" stroke-linecap="butt">
      <text x="-316.5132" xml:space="preserve" y="831.9779" clip-path="url(#clipPath2)" stroke="none">Sì</text>
    </g>
    <g fill="url(#linearGradient18)" text-rendering="geometricPrecision" shape-rendering="geometricPrecision" transform="matrix(1,0,0,1,868,-277)" stroke="url(#linearGradient18)">
      <path d="M-296.5356 743.2106 L-230.8332 779.4402 L-296.5356 815.6698 L-362.2379 779.4402 Z" stroke="none" clip-path="url(#clipPath2)"/>
    </g>
    <g text-rendering="geometricPrecision" stroke-miterlimit="1.45" shape-rendering="geometricPrecision" transform="matrix(1,0,0,1,868,-277)" stroke-linecap="butt">
      <path fill="none" d="M-296.5356 743.2106 L-230.8332 779.4402 L-296.5356 815.6698 L-362.2379 779.4402 Z" clip-path="url(#clipPath2)"/>
      <text x="-320.8813" xml:space="preserve" y="769.4529" clip-path="url(#clipPath2)" font-family="sans-serif" stroke="none">Il modulo</text>
      <text x="-325.2201" xml:space="preserve" y="784.1541" clip-path="url(#clipPath2)" font-family="sans-serif" stroke="none">di notifiche</text>
      <text x="-319.2172" xml:space="preserve" y="798.8552" clip-path="url(#clipPath2)" font-family="sans-serif" stroke="none">è attivo?</text>
    </g>
    <g fill="url(#linearGradient19)" text-rendering="geometricPrecision" shape-rendering="geometricPrecision" transform="matrix(1,0,0,1,868,-277)" stroke="url(#linearGradient19)">
      <path d="M-362.2379 845.6698 L-230.8332 845.6698 L-230.8332 918.129 L-362.2379 918.129 Z" stroke="none" clip-path="url(#clipPath2)"/>
    </g>
    <g text-rendering="geometricPrecision" stroke-miterlimit="1.45" shape-rendering="geometricPrecision" transform="matrix(1,0,0,1,868,-277)" stroke-linecap="butt">
      <path fill="none" d="M-362.2379 845.6698 L-230.8332 845.6698 L-230.8332 918.129 L-362.2379 918.129 Z" clip-path="url(#clipPath2)"/>
      <text x="-346.5629" xml:space="preserve" y="886.6132" clip-path="url(#clipPath2)" font-family="sans-serif" stroke="none">Ascolto di notifiche</text>
    </g>
    <g fill="url(#linearGradient20)" text-rendering="geometricPrecision" shape-rendering="geometricPrecision" transform="matrix(1,0,0,1,868,-277)" stroke="url(#linearGradient20)">
      <path d="M-362.2379 534.7648 L-230.8332 534.7648 L-230.8332 607.224 L-362.2379 607.224 Z" stroke="none" clip-path="url(#clipPath2)"/>
    </g>
    <g text-rendering="geometricPrecision" stroke-miterlimit="1.45" shape-rendering="geometricPrecision" transform="matrix(1,0,0,1,868,-277)" stroke-linecap="butt">
      <path fill="none" d="M-362.2379 534.7648 L-230.8332 534.7648 L-230.8332 607.224 L-362.2379 607.224 Z" clip-path="url(#clipPath2)"/>
      <text x="-356.2338" xml:space="preserve" y="575.7083" clip-path="url(#clipPath2)" font-family="sans-serif" stroke="none">Connessione al server</text>
    </g>
    <g text-rendering="geometricPrecision" stroke-miterlimit="1.45" shape-rendering="geometricPrecision" font-family="sans-serif" transform="matrix(1,0,0,1,868,-277)" stroke-linecap="butt">
      <text x="-221.5799" xml:space="preserve" y="773.0899" clip-path="url(#clipPath2)" stroke="none">No</text>
    </g>
    <g text-rendering="geometricPrecision" stroke-miterlimit="1.45" shape-rendering="geometricPrecision" font-family="sans-serif" transform="matrix(1,0,0,1,868,-277)" stroke-linecap="butt">
      <text x="243.0569" xml:space="preserve" y="772.1717" clip-path="url(#clipPath2)" stroke="none">No</text>
    </g>
    <g text-rendering="geometricPrecision" stroke-miterlimit="1.45" shape-rendering="geometricPrecision" font-family="sans-serif" transform="matrix(1,0,0,1,868,-277)" stroke-linecap="butt">
      <text x="178.6587" xml:space="preserve" y="835.3837" clip-path="url(#clipPath2)" stroke="none">Sì</text>
    </g>
    <g text-rendering="geometricPrecision" stroke-miterlimit="1.45" shape-rendering="geometricPrecision" transform="matrix(1,0,0,1,868,-277)" stroke-linecap="butt">
      <path fill="none" d="M-64.0937 388.614 L-64.0937 424.2819" clip-path="url(#clipPath2)"/>
    </g>
    <g text-rendering="geometricPrecision" stroke-miterlimit="1.45" shape-rendering="geometricPrecision" transform="matrix(1,0,0,1,868,-277)" stroke-linecap="butt">
      <path d="M-64.0937 432.2819 L-59.0937 420.2819 L-64.0937 423.2819 L-69.0937 420.2819 Z" stroke="none" clip-path="url(#clipPath2)"/>
      <path fill="none" d="M-64.0937 815.6861 L-64.0937 837.6567" clip-path="url(#clipPath2)"/>
      <path d="M-64.0937 845.6567 L-59.0937 833.6567 L-64.0937 836.6567 L-69.0937 833.6567 Z" clip-path="url(#clipPath2)" stroke="none"/>
      <path fill="none" d="M1.5629 779.4402 L34.8501 779.4402 L34.8501 675.2825 L9.5629 675.2825" clip-path="url(#clipPath2)"/>
      <path d="M1.5629 675.2825 L13.5629 680.2825 L10.5629 675.2825 L13.5629 670.2825 Z" clip-path="url(#clipPath2)" stroke="none"/>
      <path fill="none" d="M-64.0937 918.1498 L-64.0937 944.1297 L-161.919 944.1297 L-161.919 675.2825 L-137.7723 675.2825" clip-path="url(#clipPath2)"/>
      <path d="M-129.7723 675.2825 L-141.7723 670.2825 L-138.7723 675.2825 L-141.7723 680.2825 Z" clip-path="url(#clipPath2)" stroke="none"/>
      <path fill="none" d="M-64.0937 711.519 L-64.0937 735.1912" clip-path="url(#clipPath2)"/>
      <path d="M-64.0937 743.1912 L-59.0937 731.1912 L-64.0937 734.1912 L-69.0937 731.1912 Z" clip-path="url(#clipPath2)" stroke="none"/>
      <path fill="none" d="M-64.0937 504.7811 L-64.0937 526.7517" clip-path="url(#clipPath2)"/>
      <path d="M-64.0937 534.7517 L-59.0937 522.7517 L-64.0937 525.7517 L-69.0937 522.7517 Z" clip-path="url(#clipPath2)" stroke="none"/>
      <path fill="none" d="M-64.0937 607.2253 L-64.0937 631.0275" clip-path="url(#clipPath2)"/>
      <path d="M-64.0937 639.0275 L-59.0937 627.0275 L-64.0937 630.0275 L-69.0937 627.0275 Z" clip-path="url(#clipPath2)" stroke="none"/>
      <path fill="none" d="M168.3481 388.614 L168.3481 424.2819" clip-path="url(#clipPath2)"/>
      <path d="M168.3481 432.2819 L173.3481 420.2819 L168.3481 423.2819 L163.3481 420.2819 Z" clip-path="url(#clipPath2)" stroke="none"/>
      <path fill="none" d="M168.3481 743.2037 L168.3481 719.5314" clip-path="url(#clipPath2)"/>
      <path d="M168.3481 711.5314 L163.3481 723.5314 L168.3481 720.5314 L173.3481 723.5314 Z" clip-path="url(#clipPath2)" stroke="none"/>
      <path fill="none" d="M234.0511 779.4402 L267.6542 779.4402 L267.6542 675.2825 L242.0511 675.2825" clip-path="url(#clipPath2)"/>
      <path d="M234.0511 675.2825 L246.0511 680.2825 L243.0511 675.2825 L246.0511 670.2825 Z" clip-path="url(#clipPath2)" stroke="none"/>
      <path fill="none" d="M168.3481 504.7811 L168.3481 526.7517" clip-path="url(#clipPath2)"/>
      <path d="M168.3481 534.7517 L173.3481 522.7517 L168.3481 525.7517 L163.3481 522.7517 Z" clip-path="url(#clipPath2)" stroke="none"/>
      <path fill="none" d="M168.3481 607.2253 L168.3481 631.0275" clip-path="url(#clipPath2)"/>
      <path d="M168.3481 639.0275 L173.3481 627.0275 L168.3481 630.0275 L163.3481 627.0275 Z" clip-path="url(#clipPath2)" stroke="none"/>
      <path fill="none" d="M168.3481 815.6861 L168.3481 837.6567" clip-path="url(#clipPath2)"/>
      <path d="M168.3481 845.6567 L173.3481 833.6567 L168.3481 836.6567 L163.3481 833.6567 Z" clip-path="url(#clipPath2)" stroke="none"/>
      <path fill="none" d="M168.3481 918.1453 L168.3481 940.1159" clip-path="url(#clipPath2)"/>
      <path d="M168.3481 948.1159 L173.3481 936.1159 L168.3481 939.1159 L163.3481 936.1159 Z" clip-path="url(#clipPath2)" stroke="none"/>
      <path fill="none" d="M168.3481 1020.6046 L168.3481 1042.5751" clip-path="url(#clipPath2)"/>
      <path d="M168.3481 1050.5751 L173.3481 1038.5751 L168.3481 1041.5751 L163.3481 1038.5751 Z" clip-path="url(#clipPath2)" stroke="none"/>
      <path fill="none" d="M234.0511 881.8994 L267.6542 881.8994 L267.6542 1086.8177 L242.0511 1086.8177" clip-path="url(#clipPath2)"/>
      <path d="M234.0511 1086.8177 L246.0511 1091.8177 L243.0511 1086.8177 L246.0511 1081.8177 Z" clip-path="url(#clipPath2)" stroke="none"/>
      <path fill="none" d="M168.3481 1123.0446 L168.3481 1148.4906 L70.3079 1148.4906 L70.3079 675.2825 L94.6209 675.2825" clip-path="url(#clipPath2)"/>
      <path d="M102.6209 675.2825 L90.6209 670.2825 L93.6209 675.2825 L90.6209 680.2825 Z" clip-path="url(#clipPath2)" stroke="none"/>
      <path fill="none" d="M-296.5356 388.614 L-296.5356 424.2819" clip-path="url(#clipPath2)"/>
      <path d="M-296.5356 432.2819 L-291.5356 420.2819 L-296.5356 423.2819 L-301.5356 420.2819 Z" clip-path="url(#clipPath2)" stroke="none"/>
      <path fill="none" d="M-296.5356 711.519 L-296.5356 735.1912" clip-path="url(#clipPath2)"/>
      <path d="M-296.5356 743.1912 L-291.5356 731.1912 L-296.5356 734.1912 L-301.5356 731.1912 Z" clip-path="url(#clipPath2)" stroke="none"/>
      <path fill="none" d="M-230.8567 779.4402 L-196.0798 779.4402 L-196.0798 675.2825 L-222.8567 675.2825" clip-path="url(#clipPath2)"/>
      <path d="M-230.8567 675.2825 L-218.8567 680.2825 L-221.8567 675.2825 L-218.8567 670.2825 Z" clip-path="url(#clipPath2)" stroke="none"/>
      <path fill="none" d="M-296.5356 815.6861 L-296.5356 837.6567" clip-path="url(#clipPath2)"/>
      <path d="M-296.5356 845.6567 L-291.5356 833.6567 L-296.5356 836.6567 L-301.5356 833.6567 Z" clip-path="url(#clipPath2)" stroke="none"/>
      <path fill="none" d="M-296.5356 918.1498 L-296.5356 944.1297 L-391.2381 944.1297 L-391.2381 675.2825 L-370.2447 675.2825" clip-path="url(#clipPath2)"/>
      <path d="M-362.2447 675.2825 L-374.2447 670.2825 L-371.2447 675.2825 L-374.2447 680.2825 Z" clip-path="url(#clipPath2)" stroke="none"/>
      <path fill="none" d="M-296.5356 504.7811 L-296.5356 526.7517" clip-path="url(#clipPath2)"/>
      <path d="M-296.5356 534.7517 L-291.5356 522.7517 L-296.5356 525.7517 L-301.5356 522.7517 Z" clip-path="url(#clipPath2)" stroke="none"/>
      <path fill="none" d="M-296.5356 607.2253 L-296.5356 631.0275" clip-path="url(#clipPath2)"/>
      <path d="M-296.5356 639.0275 L-291.5356 627.0275 L-296.5356 630.0275 L-301.5356 627.0275 Z" clip-path="url(#clipPath2)" stroke="none"/>
    </g>
  </g>
</svg>
