<?xml version="1.0" encoding="UTF-8"?><svg xmlns="http://www.w3.org/2000/svg" xmlns:xlink="http://www.w3.org/1999/xlink" fill-opacity="1" color-rendering="auto" color-interpolation="auto" text-rendering="auto" stroke="black" stroke-linecap="square" width="767" stroke-miterlimit="10" shape-rendering="auto" stroke-opacity="1" fill="black" stroke-dasharray="none" font-weight="normal" stroke-width="1" height="857" font-family="'Dialog'" font-style="normal" stroke-linejoin="miter" font-size="12px" stroke-dashoffset="0" image-rendering="auto">
  <!--Generated by ySVG 2.5-->
  <defs id="genericDefs"/>
  <g>
    <defs id="defs1">
      <linearGradient x1="-758.9744" gradientUnits="userSpaceOnUse" x2="-672.1136" y1="554.192" y2="599.312" id="linearGradient1" spreadMethod="reflect">
        <stop stop-opacity="1" stop-color="rgb(255,153,204)" offset="0%"/>
        <stop stop-opacity="1" stop-color="rgb(255,153,204)" offset="100%"/>
      </linearGradient>
      <linearGradient x1="-603.4576" gradientUnits="userSpaceOnUse" x2="-472.0528" y1="540.5224" y2="612.9816" id="linearGradient2" spreadMethod="reflect">
        <stop stop-opacity="1" stop-color="rgb(232,238,247)" offset="0%"/>
        <stop stop-opacity="1" stop-color="rgb(183,201,227)" offset="100%"/>
      </linearGradient>
      <linearGradient x1="-247.88" gradientUnits="userSpaceOnUse" x2="-116.4752" y1="859.1395" y2="931.5987" id="linearGradient3" spreadMethod="reflect">
        <stop stop-opacity="1" stop-color="rgb(232,238,247)" offset="0%"/>
        <stop stop-opacity="1" stop-color="rgb(183,201,227)" offset="100%"/>
      </linearGradient>
      <linearGradient x1="-425.6688" gradientUnits="userSpaceOnUse" x2="-294.264" y1="540.5224" y2="612.9816" id="linearGradient4" spreadMethod="reflect">
        <stop stop-opacity="1" stop-color="rgb(232,238,247)" offset="0%"/>
        <stop stop-opacity="1" stop-color="rgb(183,201,227)" offset="100%"/>
      </linearGradient>
      <linearGradient x1="-425.6688" gradientUnits="userSpaceOnUse" x2="-294.264" y1="644.6801" y2="717.1393" id="linearGradient5" spreadMethod="reflect">
        <stop stop-opacity="1" stop-color="rgb(232,238,247)" offset="0%"/>
        <stop stop-opacity="1" stop-color="rgb(183,201,227)" offset="100%"/>
      </linearGradient>
      <linearGradient x1="-425.6688" gradientUnits="userSpaceOnUse" x2="-294.264" y1="748.8378" y2="821.297" id="linearGradient6" spreadMethod="reflect">
        <stop stop-opacity="1" stop-color="rgb(232,238,247)" offset="0%"/>
        <stop stop-opacity="1" stop-color="rgb(183,201,227)" offset="100%"/>
      </linearGradient>
      <linearGradient x1="-433.8608" gradientUnits="userSpaceOnUse" x2="-286.072" y1="852.9955" y2="937.7427" id="linearGradient7" spreadMethod="reflect">
        <stop stop-opacity="1" stop-color="rgb(232,238,247)" offset="0%"/>
        <stop stop-opacity="1" stop-color="rgb(183,201,227)" offset="100%"/>
      </linearGradient>
      <linearGradient x1="-611.6496" gradientUnits="userSpaceOnUse" x2="-463.8608" y1="742.6938" y2="827.441" id="linearGradient8" spreadMethod="reflect">
        <stop stop-opacity="1" stop-color="rgb(232,238,247)" offset="0%"/>
        <stop stop-opacity="1" stop-color="rgb(183,201,227)" offset="100%"/>
      </linearGradient>
      <linearGradient x1="-603.4576" gradientUnits="userSpaceOnUse" x2="-472.0528" y1="859.1395" y2="931.5987" id="linearGradient9" spreadMethod="reflect">
        <stop stop-opacity="1" stop-color="rgb(232,238,247)" offset="0%"/>
        <stop stop-opacity="1" stop-color="rgb(183,201,227)" offset="100%"/>
      </linearGradient>
      <linearGradient x1="-425.6688" gradientUnits="userSpaceOnUse" x2="-294.264" y1="969.4412" y2="1041.9004" id="linearGradient10" spreadMethod="reflect">
        <stop stop-opacity="1" stop-color="rgb(232,238,247)" offset="0%"/>
        <stop stop-opacity="1" stop-color="rgb(183,201,227)" offset="100%"/>
      </linearGradient>
      <linearGradient x1="-403.3968" gradientUnits="userSpaceOnUse" x2="-316.536" y1="1073.5989" y2="1118.7189" id="linearGradient11" spreadMethod="reflect">
        <stop stop-opacity="1" stop-color="rgb(255,153,204)" offset="0%"/>
        <stop stop-opacity="1" stop-color="rgb(255,153,204)" offset="100%"/>
      </linearGradient>
      <linearGradient x1="-781.2464" gradientUnits="userSpaceOnUse" x2="-649.8416" y1="859.1395" y2="931.5987" id="linearGradient12" spreadMethod="reflect">
        <stop stop-opacity="1" stop-color="rgb(232,238,247)" offset="0%"/>
        <stop stop-opacity="1" stop-color="rgb(183,201,227)" offset="100%"/>
      </linearGradient>
      <clipPath clipPathUnits="userSpaceOnUse" id="clipPath1">
        <path d="M0 0 L767 0 L767 857 L0 857 L0 0 Z"/>
      </clipPath>
      <clipPath clipPathUnits="userSpaceOnUse" id="clipPath2">
        <path d="M-868 277 L-101 277 L-101 1134 L-868 1134 L-868 277 Z"/>
      </clipPath>
    </defs>
    <g fill="white" text-rendering="geometricPrecision" shape-rendering="geometricPrecision" transform="translate(868,-277)" stroke="white">
      <rect x="-868" width="767" height="857" y="277" clip-path="url(#clipPath2)" stroke="none"/>
    </g>
    <g fill="url(#linearGradient1)" text-rendering="geometricPrecision" shape-rendering="geometricPrecision" transform="matrix(1,0,0,1,868,-277)" stroke="url(#linearGradient1)">
      <ellipse rx="43.4304" ry="22.56" clip-path="url(#clipPath2)" cx="-715.544" cy="576.752" stroke="none"/>
    </g>
    <g text-rendering="geometricPrecision" stroke-miterlimit="1.45" shape-rendering="geometricPrecision" transform="matrix(1,0,0,1,868,-277)" stroke-linecap="butt">
      <ellipse rx="43.4304" fill="none" ry="22.56" clip-path="url(#clipPath2)" cx="-715.544" cy="576.752"/>
      <text x="-729.5508" xml:space="preserve" y="581.4659" clip-path="url(#clipPath2)" font-family="sans-serif" stroke="none">Inizio</text>
    </g>
    <g fill="url(#linearGradient2)" text-rendering="geometricPrecision" shape-rendering="geometricPrecision" transform="matrix(1,0,0,1,868,-277)" stroke="url(#linearGradient2)">
      <path d="M-584.9805 540.5224 L-472.0528 540.5224 L-490.5299 612.9816 L-603.4576 612.9816 Z" stroke="none" clip-path="url(#clipPath2)"/>
    </g>
    <g text-rendering="geometricPrecision" stroke-miterlimit="1.45" shape-rendering="geometricPrecision" transform="matrix(1,0,0,1,868,-277)" stroke-linecap="butt">
      <path fill="none" d="M-584.9805 540.5224 L-472.0528 540.5224 L-490.5299 612.9816 L-603.4576 612.9816 Z" clip-path="url(#clipPath2)"/>
      <text x="-577.7836" xml:space="preserve" y="574.1153" clip-path="url(#clipPath2)" font-family="sans-serif" stroke="none">Connessione1,</text>
      <text x="-574.7836" xml:space="preserve" y="588.8165" clip-path="url(#clipPath2)" font-family="sans-serif" stroke="none">connessione2</text>
    </g>
    <g fill="url(#linearGradient3)" text-rendering="geometricPrecision" shape-rendering="geometricPrecision" transform="matrix(1,0,0,1,868,-277)" stroke="url(#linearGradient3)">
      <path d="M-247.88 859.1395 L-116.4752 859.1395 L-116.4752 931.5987 L-247.88 931.5987 Z" stroke="none" clip-path="url(#clipPath2)"/>
    </g>
    <g stroke-linecap="butt" transform="matrix(1,0,0,1,868,-277)" fill="red" text-rendering="geometricPrecision" shape-rendering="geometricPrecision" stroke="red" stroke-miterlimit="1.45">
      <path fill="none" d="M-247.88 859.1395 L-116.4752 859.1395 L-116.4752 931.5987 L-247.88 931.5987 Z" clip-path="url(#clipPath2)"/>
      <text x="-235.539" y="900.0829" clip-path="url(#clipPath2)" fill="black" font-family="sans-serif" stroke="none" xml:space="preserve">Considerate diverse</text>
    </g>
    <g fill="url(#linearGradient4)" text-rendering="geometricPrecision" shape-rendering="geometricPrecision" transform="matrix(1,0,0,1,868,-277)" stroke="url(#linearGradient4)">
      <path d="M-425.6688 540.5224 L-294.264 540.5224 L-294.264 612.9816 L-425.6688 612.9816 Z" stroke="none" clip-path="url(#clipPath2)"/>
    </g>
    <g text-rendering="geometricPrecision" stroke-miterlimit="1.45" shape-rendering="geometricPrecision" transform="matrix(1,0,0,1,868,-277)" stroke-linecap="butt">
      <path fill="none" d="M-425.6688 540.5224 L-294.264 540.5224 L-294.264 612.9816 L-425.6688 612.9816 Z" clip-path="url(#clipPath2)"/>
      <text x="-407.3307" xml:space="preserve" y="581.4659" clip-path="url(#clipPath2)" font-family="sans-serif" stroke="none">Confronto dei dati</text>
    </g>
    <g text-rendering="geometricPrecision" stroke-miterlimit="1.45" shape-rendering="geometricPrecision" font-family="sans-serif" transform="matrix(1,0,0,1,868,-277)" stroke-linecap="butt">
      <text x="-379.944" xml:space="preserve" y="733.4474" clip-path="url(#clipPath2)" stroke="none">Sì</text>
    </g>
    <g fill="url(#linearGradient5)" text-rendering="geometricPrecision" shape-rendering="geometricPrecision" transform="matrix(1,0,0,1,868,-277)" stroke="url(#linearGradient5)">
      <path d="M-359.9664 644.6801 L-294.264 680.9097 L-359.9664 717.1393 L-425.6688 680.9097 Z" stroke="none" clip-path="url(#clipPath2)"/>
    </g>
    <g text-rendering="geometricPrecision" stroke-miterlimit="1.45" shape-rendering="geometricPrecision" transform="matrix(1,0,0,1,868,-277)" stroke-linecap="butt">
      <path fill="none" d="M-359.9664 644.6801 L-294.264 680.9097 L-359.9664 717.1393 L-425.6688 680.9097 Z" clip-path="url(#clipPath2)"/>
      <text x="-401.984" xml:space="preserve" y="678.2729" clip-path="url(#clipPath2)" font-family="sans-serif" stroke="none">Nome processo</text>
      <text x="-394.6539" xml:space="preserve" y="692.9741" clip-path="url(#clipPath2)" font-family="sans-serif" stroke="none">corrisponde?</text>
    </g>
    <g text-rendering="geometricPrecision" stroke-miterlimit="1.45" shape-rendering="geometricPrecision" font-family="sans-serif" transform="matrix(1,0,0,1,868,-277)" stroke-linecap="butt">
      <text x="-288.9981" xml:space="preserve" y="674.5594" clip-path="url(#clipPath2)" stroke="none">No</text>
    </g>
    <g fill="url(#linearGradient6)" text-rendering="geometricPrecision" shape-rendering="geometricPrecision" transform="matrix(1,0,0,1,868,-277)" stroke="url(#linearGradient6)">
      <path d="M-359.9664 748.8378 L-294.264 785.0674 L-359.9664 821.297 L-425.6688 785.0674 Z" stroke="none" clip-path="url(#clipPath2)"/>
    </g>
    <g text-rendering="geometricPrecision" stroke-miterlimit="1.45" shape-rendering="geometricPrecision" transform="matrix(1,0,0,1,868,-277)" stroke-linecap="butt">
      <path fill="none" d="M-359.9664 748.8378 L-294.264 785.0674 L-359.9664 821.297 L-425.6688 785.0674 Z" clip-path="url(#clipPath2)"/>
      <text x="-394.6539" xml:space="preserve" y="782.4307" clip-path="url(#clipPath2)" font-family="sans-serif" stroke="none">Destinazione</text>
      <text x="-377.9811" xml:space="preserve" y="797.1318" clip-path="url(#clipPath2)" font-family="sans-serif" stroke="none">vuota?</text>
    </g>
    <g fill="url(#linearGradient7)" text-rendering="geometricPrecision" shape-rendering="geometricPrecision" transform="matrix(1,0,0,1,868,-277)" stroke="url(#linearGradient7)">
      <path d="M-359.9664 852.9955 L-286.072 895.3691 L-359.9664 937.7427 L-433.8608 895.3691 Z" stroke="none" clip-path="url(#clipPath2)"/>
    </g>
    <g text-rendering="geometricPrecision" stroke-miterlimit="1.45" shape-rendering="geometricPrecision" transform="matrix(1,0,0,1,868,-277)" stroke-linecap="butt">
      <path fill="none" d="M-359.9664 852.9955 L-286.072 895.3691 L-359.9664 937.7427 L-433.8608 895.3691 Z" clip-path="url(#clipPath2)"/>
      <text x="-410.9987" xml:space="preserve" y="892.7324" clip-path="url(#clipPath2)" font-family="sans-serif" stroke="none">IP e porta sorgente</text>
      <text x="-401.3278" xml:space="preserve" y="907.4335" clip-path="url(#clipPath2)" font-family="sans-serif" stroke="none">corrispondono?</text>
    </g>
    <g fill="url(#linearGradient8)" text-rendering="geometricPrecision" shape-rendering="geometricPrecision" transform="matrix(1,0,0,1,868,-277)" stroke="url(#linearGradient8)">
      <path d="M-537.7552 742.6938 L-463.8608 785.0674 L-537.7552 827.441 L-611.6496 785.0674 Z" stroke="none" clip-path="url(#clipPath2)"/>
    </g>
    <g text-rendering="geometricPrecision" stroke-miterlimit="1.45" shape-rendering="geometricPrecision" transform="matrix(1,0,0,1,868,-277)" stroke-linecap="butt">
      <path fill="none" d="M-537.7552 742.6938 L-463.8608 785.0674 L-537.7552 827.441 L-611.6496 785.0674 Z" clip-path="url(#clipPath2)"/>
      <text x="-563.7709" xml:space="preserve" y="775.0801" clip-path="url(#clipPath2)" font-family="sans-serif" stroke="none">IP e porta</text>
      <text x="-571.4467" xml:space="preserve" y="789.7812" clip-path="url(#clipPath2)" font-family="sans-serif" stroke="none">destinazione</text>
      <text x="-579.1166" xml:space="preserve" y="804.4824" clip-path="url(#clipPath2)" font-family="sans-serif" stroke="none">corrispondono?</text>
    </g>
    <g fill="url(#linearGradient9)" text-rendering="geometricPrecision" shape-rendering="geometricPrecision" transform="matrix(1,0,0,1,868,-277)" stroke="url(#linearGradient9)">
      <path d="M-537.7552 859.1395 L-472.0528 895.3691 L-537.7552 931.5987 L-603.4576 895.3691 Z" stroke="none" clip-path="url(#clipPath2)"/>
    </g>
    <g text-rendering="geometricPrecision" stroke-miterlimit="1.45" shape-rendering="geometricPrecision" transform="matrix(1,0,0,1,868,-277)" stroke-linecap="butt">
      <path fill="none" d="M-537.7552 859.1395 L-472.0528 895.3691 L-537.7552 931.5987 L-603.4576 895.3691 Z" clip-path="url(#clipPath2)"/>
      <text x="-568.4408" xml:space="preserve" y="892.7324" clip-path="url(#clipPath2)" font-family="sans-serif" stroke="none">IP sorgente</text>
      <text x="-579.1166" xml:space="preserve" y="907.4335" clip-path="url(#clipPath2)" font-family="sans-serif" stroke="none">corrispondono?</text>
    </g>
    <g fill="url(#linearGradient10)" text-rendering="geometricPrecision" shape-rendering="geometricPrecision" transform="matrix(1,0,0,1,868,-277)" stroke="url(#linearGradient10)">
      <path d="M-425.6688 969.4412 L-294.264 969.4412 L-294.264 1041.9004 L-425.6688 1041.9004 Z" stroke="none" clip-path="url(#clipPath2)"/>
    </g>
    <g stroke-linecap="butt" transform="matrix(1,0,0,1,868,-277)" fill="rgb(51,153,102)" text-rendering="geometricPrecision" shape-rendering="geometricPrecision" stroke="rgb(51,153,102)" stroke-miterlimit="1.45">
      <path fill="none" d="M-425.6688 969.4412 L-294.264 969.4412 L-294.264 1041.9004 L-425.6688 1041.9004 Z" clip-path="url(#clipPath2)"/>
      <text x="-409.9996" y="1010.3846" clip-path="url(#clipPath2)" fill="black" font-family="sans-serif" stroke="none" xml:space="preserve">Considerate uguali</text>
    </g>
    <g fill="url(#linearGradient11)" text-rendering="geometricPrecision" shape-rendering="geometricPrecision" transform="matrix(1,0,0,1,868,-277)" stroke="url(#linearGradient11)">
      <ellipse rx="43.4304" ry="22.56" clip-path="url(#clipPath2)" cx="-359.9664" cy="1096.1589" stroke="none"/>
    </g>
    <g text-rendering="geometricPrecision" stroke-miterlimit="1.45" shape-rendering="geometricPrecision" transform="matrix(1,0,0,1,868,-277)" stroke-linecap="butt">
      <ellipse rx="43.4304" fill="none" ry="22.56" clip-path="url(#clipPath2)" cx="-359.9664" cy="1096.1589"/>
      <text x="-371.6383" xml:space="preserve" y="1100.8727" clip-path="url(#clipPath2)" font-family="sans-serif" stroke="none">Fine</text>
    </g>
    <g fill="url(#linearGradient12)" text-rendering="geometricPrecision" shape-rendering="geometricPrecision" transform="matrix(1,0,0,1,868,-277)" stroke="url(#linearGradient12)">
      <path d="M-781.2464 859.1395 L-649.8416 859.1395 L-649.8416 931.5987 L-781.2464 931.5987 Z" stroke="none" clip-path="url(#clipPath2)"/>
    </g>
    <g stroke-linecap="butt" transform="matrix(1,0,0,1,868,-277)" fill="red" text-rendering="geometricPrecision" shape-rendering="geometricPrecision" stroke="red" stroke-miterlimit="1.45">
      <path fill="none" d="M-781.2464 859.1395 L-649.8416 859.1395 L-649.8416 931.5987 L-781.2464 931.5987 Z" clip-path="url(#clipPath2)"/>
      <text x="-768.9053" y="900.0829" clip-path="url(#clipPath2)" fill="black" font-family="sans-serif" stroke="none" xml:space="preserve">Considerate diverse</text>
    </g>
    <g text-rendering="geometricPrecision" stroke-miterlimit="1.45" shape-rendering="geometricPrecision" font-family="sans-serif" transform="matrix(1,0,0,1,868,-277)" stroke-linecap="butt">
      <text x="-380.1842" xml:space="preserve" y="841.8601" clip-path="url(#clipPath2)" stroke="none">Sì</text>
    </g>
    <g text-rendering="geometricPrecision" stroke-miterlimit="1.45" shape-rendering="geometricPrecision" font-family="sans-serif" transform="matrix(1,0,0,1,868,-277)" stroke-linecap="butt">
      <text x="-452.4348" xml:space="preserve" y="778.1089" clip-path="url(#clipPath2)" stroke="none">No</text>
    </g>
    <g text-rendering="geometricPrecision" stroke-miterlimit="1.45" shape-rendering="geometricPrecision" font-family="sans-serif" transform="matrix(1,0,0,1,868,-277)" stroke-linecap="butt">
      <text x="-562.1634" xml:space="preserve" y="848.0041" clip-path="url(#clipPath2)" stroke="none">Sì</text>
    </g>
    <g text-rendering="geometricPrecision" stroke-miterlimit="1.45" shape-rendering="geometricPrecision" font-family="sans-serif" transform="matrix(1,0,0,1,868,-277)" stroke-linecap="butt">
      <text x="-638.4155" xml:space="preserve" y="777.528" clip-path="url(#clipPath2)" stroke="none">No</text>
    </g>
    <g text-rendering="geometricPrecision" stroke-miterlimit="1.45" shape-rendering="geometricPrecision" font-family="sans-serif" transform="matrix(1,0,0,1,868,-277)" stroke-linecap="butt">
      <text x="-379.405" xml:space="preserve" y="958.3058" clip-path="url(#clipPath2)" stroke="none">Sì</text>
    </g>
    <g text-rendering="geometricPrecision" stroke-miterlimit="1.45" shape-rendering="geometricPrecision" font-family="sans-serif" transform="matrix(1,0,0,1,868,-277)" stroke-linecap="butt">
      <text x="-282.1947" xml:space="preserve" y="888.2479" clip-path="url(#clipPath2)" stroke="none">No</text>
    </g>
    <g text-rendering="geometricPrecision" stroke-miterlimit="1.45" shape-rendering="geometricPrecision" font-family="sans-serif" transform="matrix(1,0,0,1,868,-277)" stroke-linecap="butt">
      <text x="-559.1282" xml:space="preserve" y="947.6817" clip-path="url(#clipPath2)" stroke="none">Sì</text>
    </g>
    <g text-rendering="geometricPrecision" stroke-miterlimit="1.45" shape-rendering="geometricPrecision" font-family="sans-serif" transform="matrix(1,0,0,1,868,-277)" stroke-linecap="butt">
      <text x="-629.6044" xml:space="preserve" y="887.83" clip-path="url(#clipPath2)" stroke="none">No</text>
    </g>
    <g text-rendering="geometricPrecision" stroke-miterlimit="1.45" shape-rendering="geometricPrecision" transform="matrix(1,0,0,1,868,-277)" stroke-linecap="butt">
      <path fill="none" d="M-672.0952 576.752 L-602.2003 576.752" clip-path="url(#clipPath2)"/>
    </g>
    <g text-rendering="geometricPrecision" stroke-miterlimit="1.45" shape-rendering="geometricPrecision" transform="matrix(1,0,0,1,868,-277)" stroke-linecap="butt">
      <path d="M-594.2003 576.752 L-606.2003 571.752 L-603.2003 576.752 L-606.2003 581.752 Z" stroke="none" clip-path="url(#clipPath2)"/>
      <path fill="none" d="M-481.2847 576.752 L-433.6904 576.752" clip-path="url(#clipPath2)"/>
      <path d="M-425.6904 576.752 L-437.6904 571.752 L-434.6904 576.752 L-437.6904 581.752 Z" clip-path="url(#clipPath2)" stroke="none"/>
      <path fill="none" d="M-359.9664 612.9885 L-359.9664 636.6608" clip-path="url(#clipPath2)"/>
      <path d="M-359.9664 644.6608 L-354.9664 632.6608 L-359.9664 635.6608 L-364.9664 632.6608 Z" clip-path="url(#clipPath2)" stroke="none"/>
      <path fill="none" d="M-294.2939 680.9097 L-182.1776 680.9097 L-182.1776 851.1633" clip-path="url(#clipPath2)"/>
      <path d="M-182.1776 859.1633 L-177.1776 847.1633 L-182.1776 850.1633 L-187.1776 847.1633 Z" clip-path="url(#clipPath2)" stroke="none"/>
      <path fill="none" d="M-359.9664 717.1462 L-359.9664 740.8184" clip-path="url(#clipPath2)"/>
      <path d="M-359.9664 748.8184 L-354.9664 736.8184 L-359.9664 739.8184 L-364.9664 736.8184 Z" clip-path="url(#clipPath2)" stroke="none"/>
      <path fill="none" d="M-359.9664 821.287 L-359.9664 845.0107" clip-path="url(#clipPath2)" stroke="rgb(153,204,0)"/>
      <path fill="rgb(153,204,0)" d="M-359.9664 853.0107 L-354.9664 841.0107 L-359.9664 844.0107 L-364.9664 841.0107 Z" clip-path="url(#clipPath2)" stroke="none"/>
      <path fill="none" d="M-286.0469 895.3691 L-255.882 895.3691" clip-path="url(#clipPath2)"/>
      <path d="M-247.882 895.3691 L-259.882 890.3691 L-256.882 895.3691 L-259.882 900.3691 Z" clip-path="url(#clipPath2)" stroke="none"/>
      <path fill="none" d="M-425.6389 785.0674 L-455.8778 785.0674" clip-path="url(#clipPath2)" stroke="rgb(51,102,255)"/>
      <path fill="rgb(51,102,255)" d="M-463.8778 785.0674 L-451.8778 790.0674 L-454.8778 785.0674 L-451.8778 780.0674 Z" clip-path="url(#clipPath2)" stroke="none"/>
      <path fill="none" d="M-537.7552 827.4269 L-537.7552 851.1089" clip-path="url(#clipPath2)" stroke="rgb(51,102,255)"/>
      <path fill="rgb(51,102,255)" d="M-537.7552 859.1089 L-532.7552 847.1089 L-537.7552 850.1089 L-542.7552 847.1089 Z" clip-path="url(#clipPath2)" stroke="none"/>
      <path fill="none" d="M-359.9664 937.7286 L-359.9664 961.4106" clip-path="url(#clipPath2)" stroke="rgb(153,204,0)"/>
      <path fill="rgb(153,204,0)" d="M-359.9664 969.4106 L-354.9664 957.4106 L-359.9664 960.4106 L-364.9664 957.4106 Z" clip-path="url(#clipPath2)" stroke="none"/>
      <path fill="none" d="M-537.7552 931.5887 L-537.7552 1005.6708 L-433.6389 1005.6708" clip-path="url(#clipPath2)" stroke="rgb(51,102,255)"/>
      <path fill="rgb(51,102,255)" d="M-425.6389 1005.6708 L-437.6389 1000.6708 L-434.6389 1005.6708 L-437.6389 1010.6708 Z" clip-path="url(#clipPath2)" stroke="none"/>
      <path fill="none" d="M-359.9664 1041.8572 L-359.9664 1065.595" clip-path="url(#clipPath2)"/>
      <path d="M-359.9664 1073.595 L-354.9664 1061.595 L-359.9664 1064.595 L-364.9664 1061.595 Z" clip-path="url(#clipPath2)" stroke="none"/>
      <path fill="none" d="M-182.1776 931.5956 L-182.1776 1096.1588 L-308.5175 1096.1588" clip-path="url(#clipPath2)"/>
      <path d="M-316.5175 1096.1588 L-304.5175 1101.1588 L-307.5175 1096.1588 L-304.5175 1091.1588 Z" clip-path="url(#clipPath2)" stroke="none"/>
      <path fill="none" d="M-611.6747 785.0674 L-715.544 785.0674 L-715.544 851.1494" clip-path="url(#clipPath2)"/>
      <path d="M-715.544 859.1494 L-710.544 847.1494 L-715.544 850.1494 L-720.544 847.1494 Z" clip-path="url(#clipPath2)" stroke="none"/>
      <path fill="none" d="M-603.4277 895.3691 L-641.8235 895.3691" clip-path="url(#clipPath2)"/>
      <path d="M-649.8235 895.3691 L-637.8235 900.3691 L-640.8235 895.3691 L-637.8235 890.3691 Z" clip-path="url(#clipPath2)" stroke="none"/>
      <path fill="none" d="M-715.544 931.5956 L-715.544 1096.1588 L-411.4153 1096.1588" clip-path="url(#clipPath2)"/>
      <path d="M-403.4153 1096.1588 L-415.4153 1091.1588 L-412.4153 1096.1588 L-415.4153 1101.1588 Z" clip-path="url(#clipPath2)" stroke="none"/>
    </g>
  </g>
</svg>
