<?xml version="1.0" encoding="UTF-8"?><svg xmlns="http://www.w3.org/2000/svg" xmlns:xlink="http://www.w3.org/1999/xlink" fill-opacity="1" color-rendering="auto" color-interpolation="auto" text-rendering="auto" stroke="black" stroke-linecap="square" width="922" stroke-miterlimit="10" shape-rendering="auto" stroke-opacity="1" fill="black" stroke-dasharray="none" font-weight="normal" stroke-width="1" height="610" font-family="'Dialog'" font-style="normal" stroke-linejoin="miter" font-size="12px" stroke-dashoffset="0" image-rendering="auto">
  <!--Generated by ySVG 2.5-->
  <defs id="genericDefs"/>
  <g>
    <defs id="defs1">
      <linearGradient x1="1127.0134" gradientUnits="userSpaceOnUse" x2="1258.4182" y1="509.7075" y2="582.1667" id="linearGradient1" spreadMethod="reflect">
        <stop stop-opacity="1" stop-color="rgb(232,238,247)" offset="0%"/>
        <stop stop-opacity="1" stop-color="rgb(183,201,227)" offset="100%"/>
      </linearGradient>
      <linearGradient x1="1316.9504" gradientUnits="userSpaceOnUse" x2="1448.3552" y1="509.7075" y2="582.1667" id="linearGradient2" spreadMethod="reflect">
        <stop stop-opacity="1" stop-color="rgb(232,238,247)" offset="0%"/>
        <stop stop-opacity="1" stop-color="rgb(183,201,227)" offset="100%"/>
      </linearGradient>
      <linearGradient x1="1127.0134" gradientUnits="userSpaceOnUse" x2="1258.4182" y1="1015.7939" y2="1088.2532" id="linearGradient3" spreadMethod="reflect">
        <stop stop-opacity="1" stop-color="rgb(232,238,247)" offset="0%"/>
        <stop stop-opacity="1" stop-color="rgb(183,201,227)" offset="100%"/>
      </linearGradient>
      <linearGradient x1="1316.9504" gradientUnits="userSpaceOnUse" x2="1448.3552" y1="1015.7939" y2="1088.2532" id="linearGradient4" spreadMethod="reflect">
        <stop stop-opacity="1" stop-color="rgb(232,238,247)" offset="0%"/>
        <stop stop-opacity="1" stop-color="rgb(183,201,227)" offset="100%"/>
      </linearGradient>
      <linearGradient x1="1187.6698" gradientUnits="userSpaceOnUse" x2="1197.7617" y1="626.3635" y2="716.0302" id="linearGradient5" spreadMethod="reflect">
        <stop stop-opacity="1" stop-color="white" offset="0%"/>
        <stop stop-opacity="1" stop-color="silver" offset="100%"/>
      </linearGradient>
      <linearGradient x1="1377.6069" gradientUnits="userSpaceOnUse" x2="1387.6989" y1="626.3635" y2="716.0302" id="linearGradient6" spreadMethod="reflect">
        <stop stop-opacity="1" stop-color="white" offset="0%"/>
        <stop stop-opacity="1" stop-color="silver" offset="100%"/>
      </linearGradient>
      <linearGradient x1="1187.6698" gradientUnits="userSpaceOnUse" x2="1197.7617" y1="756.1737" y2="845.8404" id="linearGradient7" spreadMethod="reflect">
        <stop stop-opacity="1" stop-color="white" offset="0%"/>
        <stop stop-opacity="1" stop-color="silver" offset="100%"/>
      </linearGradient>
      <linearGradient x1="1377.6069" gradientUnits="userSpaceOnUse" x2="1387.6989" y1="756.1737" y2="845.8404" id="linearGradient8" spreadMethod="reflect">
        <stop stop-opacity="1" stop-color="white" offset="0%"/>
        <stop stop-opacity="1" stop-color="silver" offset="100%"/>
      </linearGradient>
      <linearGradient x1="1506.8876" gradientUnits="userSpaceOnUse" x2="1638.2924" y1="509.7075" y2="582.1667" id="linearGradient9" spreadMethod="reflect">
        <stop stop-opacity="1" stop-color="rgb(232,238,247)" offset="0%"/>
        <stop stop-opacity="1" stop-color="rgb(183,201,227)" offset="100%"/>
      </linearGradient>
      <linearGradient x1="1506.8876" gradientUnits="userSpaceOnUse" x2="1638.2924" y1="1015.7939" y2="1088.2532" id="linearGradient10" spreadMethod="reflect">
        <stop stop-opacity="1" stop-color="rgb(232,238,247)" offset="0%"/>
        <stop stop-opacity="1" stop-color="rgb(183,201,227)" offset="100%"/>
      </linearGradient>
      <linearGradient x1="1567.5439" gradientUnits="userSpaceOnUse" x2="1577.636" y1="640.4263" y2="697.112" id="linearGradient11" spreadMethod="reflect">
        <stop stop-opacity="1" stop-color="white" offset="0%"/>
        <stop stop-opacity="1" stop-color="silver" offset="100%"/>
      </linearGradient>
      <linearGradient x1="1757.4811" gradientUnits="userSpaceOnUse" x2="1767.5731" y1="771.4503" y2="828.136" id="linearGradient12" spreadMethod="reflect">
        <stop stop-opacity="1" stop-color="white" offset="0%"/>
        <stop stop-opacity="1" stop-color="silver" offset="100%"/>
      </linearGradient>
      <linearGradient x1="1696.8247" gradientUnits="userSpaceOnUse" x2="1828.2295" y1="509.7075" y2="582.1667" id="linearGradient13" spreadMethod="reflect">
        <stop stop-opacity="1" stop-color="rgb(232,238,247)" offset="0%"/>
        <stop stop-opacity="1" stop-color="rgb(183,201,227)" offset="100%"/>
      </linearGradient>
      <linearGradient x1="1696.8247" gradientUnits="userSpaceOnUse" x2="1828.2295" y1="1015.7939" y2="1088.2532" id="linearGradient14" spreadMethod="reflect">
        <stop stop-opacity="1" stop-color="rgb(232,238,247)" offset="0%"/>
        <stop stop-opacity="1" stop-color="rgb(183,201,227)" offset="100%"/>
      </linearGradient>
      <linearGradient x1="1757.4811" gradientUnits="userSpaceOnUse" x2="1767.5731" y1="650.4641" y2="687.0743" id="linearGradient15" spreadMethod="reflect">
        <stop stop-opacity="1" stop-color="white" offset="0%"/>
        <stop stop-opacity="1" stop-color="silver" offset="100%"/>
      </linearGradient>
      <linearGradient x1="1187.6698" gradientUnits="userSpaceOnUse" x2="1197.7617" y1="885.9838" y2="975.6505" id="linearGradient16" spreadMethod="reflect">
        <stop stop-opacity="1" stop-color="white" offset="0%"/>
        <stop stop-opacity="1" stop-color="silver" offset="100%"/>
      </linearGradient>
      <linearGradient x1="1377.6069" gradientUnits="userSpaceOnUse" x2="1387.6989" y1="885.9838" y2="975.6505" id="linearGradient17" spreadMethod="reflect">
        <stop stop-opacity="1" stop-color="white" offset="0%"/>
        <stop stop-opacity="1" stop-color="silver" offset="100%"/>
      </linearGradient>
      <linearGradient x1="1567.5439" gradientUnits="userSpaceOnUse" x2="1577.636" y1="902.4743" y2="959.16" id="linearGradient18" spreadMethod="reflect">
        <stop stop-opacity="1" stop-color="white" offset="0%"/>
        <stop stop-opacity="1" stop-color="silver" offset="100%"/>
      </linearGradient>
      <linearGradient x1="1757.4811" gradientUnits="userSpaceOnUse" x2="1767.5731" y1="912.512" y2="949.1223" id="linearGradient19" spreadMethod="reflect">
        <stop stop-opacity="1" stop-color="white" offset="0%"/>
        <stop stop-opacity="1" stop-color="silver" offset="100%"/>
      </linearGradient>
      <linearGradient x1="937.0763" gradientUnits="userSpaceOnUse" x2="1068.4811" y1="509.7075" y2="582.1667" id="linearGradient20" spreadMethod="reflect">
        <stop stop-opacity="1" stop-color="rgb(232,238,247)" offset="0%"/>
        <stop stop-opacity="1" stop-color="rgb(183,201,227)" offset="100%"/>
      </linearGradient>
      <linearGradient x1="937.0763" gradientUnits="userSpaceOnUse" x2="1068.4811" y1="1015.7939" y2="1088.2532" id="linearGradient21" spreadMethod="reflect">
        <stop stop-opacity="1" stop-color="rgb(232,238,247)" offset="0%"/>
        <stop stop-opacity="1" stop-color="rgb(183,201,227)" offset="100%"/>
      </linearGradient>
      <linearGradient x1="997.7327" gradientUnits="userSpaceOnUse" x2="1007.8246" y1="642.8541" y2="699.5397" id="linearGradient22" spreadMethod="reflect">
        <stop stop-opacity="1" stop-color="white" offset="0%"/>
        <stop stop-opacity="1" stop-color="silver" offset="100%"/>
      </linearGradient>
      <linearGradient x1="997.7327" gradientUnits="userSpaceOnUse" x2="1007.8246" y1="902.4743" y2="959.16" id="linearGradient23" spreadMethod="reflect">
        <stop stop-opacity="1" stop-color="white" offset="0%"/>
        <stop stop-opacity="1" stop-color="silver" offset="100%"/>
      </linearGradient>
      <linearGradient x1="997.7327" gradientUnits="userSpaceOnUse" x2="1007.8246" y1="772.6642" y2="829.3499" id="linearGradient24" spreadMethod="reflect">
        <stop stop-opacity="1" stop-color="white" offset="0%"/>
        <stop stop-opacity="1" stop-color="silver" offset="100%"/>
      </linearGradient>
      <clipPath clipPathUnits="userSpaceOnUse" id="clipPath1">
        <path d="M0 0 L922 0 L922 610 L0 610 L0 0 Z"/>
      </clipPath>
      <clipPath clipPathUnits="userSpaceOnUse" id="clipPath2">
        <path d="M922 494 L1844 494 L1844 1104 L922 1104 L922 494 Z"/>
      </clipPath>
    </defs>
    <g fill="white" text-rendering="geometricPrecision" shape-rendering="geometricPrecision" transform="translate(-922,-494)" stroke="white">
      <rect x="922" width="922" height="610" y="494" clip-path="url(#clipPath2)" stroke="none"/>
    </g>
    <g fill="url(#linearGradient1)" text-rendering="geometricPrecision" shape-rendering="geometricPrecision" transform="matrix(1,0,0,1,-922,-494)" stroke="url(#linearGradient1)">
      <path d="M1127.0134 509.7075 L1258.4182 509.7075 L1258.4182 582.1667 L1127.0134 582.1667 Z" stroke="none" clip-path="url(#clipPath2)"/>
    </g>
    <g text-rendering="geometricPrecision" stroke-miterlimit="1.45" shape-rendering="geometricPrecision" transform="matrix(1,0,0,1,-922,-494)" stroke-linecap="butt">
      <path fill="none" d="M1127.0134 509.7075 L1258.4182 509.7075 L1258.4182 582.1667 L1127.0134 582.1667 Z" clip-path="url(#clipPath2)"/>
      <text x="1155.377" xml:space="preserve" y="550.651" clip-path="url(#clipPath2)" font-family="sans-serif" stroke="none">Butler (REST)</text>
    </g>
    <g fill="url(#linearGradient2)" text-rendering="geometricPrecision" shape-rendering="geometricPrecision" transform="matrix(1,0,0,1,-922,-494)" stroke="url(#linearGradient2)">
      <path d="M1316.9504 509.7075 L1448.3552 509.7075 L1448.3552 582.1667 L1316.9504 582.1667 Z" stroke="none" clip-path="url(#clipPath2)"/>
    </g>
    <g text-rendering="geometricPrecision" stroke-miterlimit="1.45" shape-rendering="geometricPrecision" transform="matrix(1,0,0,1,-922,-494)" stroke-linecap="butt">
      <path fill="none" d="M1316.9504 509.7075 L1448.3552 509.7075 L1448.3552 582.1667 L1316.9504 582.1667 Z" clip-path="url(#clipPath2)"/>
      <text x="1343.3159" xml:space="preserve" y="550.651" clip-path="url(#clipPath2)" font-family="sans-serif" stroke="none">Server (REST)</text>
    </g>
    <g fill="url(#linearGradient3)" text-rendering="geometricPrecision" shape-rendering="geometricPrecision" transform="matrix(1,0,0,1,-922,-494)" stroke="url(#linearGradient3)">
      <path d="M1127.0134 1015.7939 L1258.4182 1015.7939 L1258.4182 1088.2532 L1127.0134 1088.2532 Z" stroke="none" clip-path="url(#clipPath2)"/>
    </g>
    <g text-rendering="geometricPrecision" stroke-miterlimit="1.45" shape-rendering="geometricPrecision" transform="matrix(1,0,0,1,-922,-494)" stroke-linecap="butt">
      <path fill="none" d="M1127.0134 1015.7939 L1258.4182 1015.7939 L1258.4182 1088.2532 L1127.0134 1088.2532 Z" clip-path="url(#clipPath2)"/>
      <text x="1155.377" xml:space="preserve" y="1056.7374" clip-path="url(#clipPath2)" font-family="sans-serif" stroke="none">Butler (REST)</text>
    </g>
    <g fill="url(#linearGradient4)" text-rendering="geometricPrecision" shape-rendering="geometricPrecision" transform="matrix(1,0,0,1,-922,-494)" stroke="url(#linearGradient4)">
      <path d="M1316.9504 1015.7939 L1448.3552 1015.7939 L1448.3552 1088.2532 L1316.9504 1088.2532 Z" stroke="none" clip-path="url(#clipPath2)"/>
    </g>
    <g text-rendering="geometricPrecision" stroke-miterlimit="1.45" shape-rendering="geometricPrecision" transform="matrix(1,0,0,1,-922,-494)" stroke-linecap="butt">
      <path fill="none" d="M1316.9504 1015.7939 L1448.3552 1015.7939 L1448.3552 1088.2532 L1316.9504 1088.2532 Z" clip-path="url(#clipPath2)"/>
      <text x="1343.3159" xml:space="preserve" y="1056.7374" clip-path="url(#clipPath2)" font-family="sans-serif" stroke="none">Server (REST)</text>
    </g>
    <g fill="url(#linearGradient5)" text-rendering="geometricPrecision" shape-rendering="geometricPrecision" transform="matrix(1,0,0,1,-922,-494)" stroke="url(#linearGradient5)">
      <path d="M1187.6698 626.3635 L1197.7617 626.3635 L1197.7617 716.0302 L1187.6698 716.0302 Z" stroke="none" clip-path="url(#clipPath2)"/>
    </g>
    <g text-rendering="geometricPrecision" stroke-miterlimit="1.45" shape-rendering="geometricPrecision" transform="matrix(1,0,0,1,-922,-494)" stroke-linecap="butt">
      <path fill="none" d="M1187.6698 626.3635 L1197.7617 626.3635 L1197.7617 716.0302 L1187.6698 716.0302 Z" clip-path="url(#clipPath2)"/>
    </g>
    <g fill="url(#linearGradient6)" text-rendering="geometricPrecision" shape-rendering="geometricPrecision" transform="matrix(1,0,0,1,-922,-494)" stroke="url(#linearGradient6)">
      <path d="M1377.6069 626.3635 L1387.6989 626.3635 L1387.6989 716.0302 L1377.6069 716.0302 Z" stroke="none" clip-path="url(#clipPath2)"/>
    </g>
    <g text-rendering="geometricPrecision" stroke-miterlimit="1.45" shape-rendering="geometricPrecision" transform="matrix(1,0,0,1,-922,-494)" stroke-linecap="butt">
      <path fill="none" d="M1377.6069 626.3635 L1387.6989 626.3635 L1387.6989 716.0302 L1377.6069 716.0302 Z" clip-path="url(#clipPath2)"/>
    </g>
    <g text-rendering="geometricPrecision" stroke-miterlimit="1.45" shape-rendering="geometricPrecision" font-family="sans-serif" transform="matrix(1,0,0,1,-922,-494)" stroke-linecap="butt">
      <text x="1248.324" xml:space="preserve" y="606.2972" clip-path="url(#clipPath2)" stroke="none">Autenticazione</text>
      <text x="1253.0027" xml:space="preserve" y="620.9984" clip-path="url(#clipPath2)" stroke="none">tramite token</text>
    </g>
    <g text-rendering="geometricPrecision" stroke-miterlimit="1.45" shape-rendering="geometricPrecision" font-family="sans-serif" transform="matrix(1,0,0,1,-922,-494)" stroke-linecap="butt">
      <text x="1238.6531" xml:space="preserve" y="707.946" clip-path="url(#clipPath2)" stroke="none">autenticazione OK</text>
    </g>
    <g fill="url(#linearGradient7)" text-rendering="geometricPrecision" shape-rendering="geometricPrecision" transform="matrix(1,0,0,1,-922,-494)" stroke="url(#linearGradient7)">
      <path d="M1187.6698 756.1737 L1197.7617 756.1737 L1197.7617 845.8404 L1187.6698 845.8404 Z" stroke="none" clip-path="url(#clipPath2)"/>
    </g>
    <g text-rendering="geometricPrecision" stroke-miterlimit="1.45" shape-rendering="geometricPrecision" transform="matrix(1,0,0,1,-922,-494)" stroke-linecap="butt">
      <path fill="none" d="M1187.6698 756.1737 L1197.7617 756.1737 L1197.7617 845.8404 L1187.6698 845.8404 Z" clip-path="url(#clipPath2)"/>
    </g>
    <g fill="url(#linearGradient8)" text-rendering="geometricPrecision" shape-rendering="geometricPrecision" transform="matrix(1,0,0,1,-922,-494)" stroke="url(#linearGradient8)">
      <path d="M1377.6069 756.1737 L1387.6989 756.1737 L1387.6989 845.8404 L1377.6069 845.8404 Z" stroke="none" clip-path="url(#clipPath2)"/>
    </g>
    <g text-rendering="geometricPrecision" stroke-miterlimit="1.45" shape-rendering="geometricPrecision" transform="matrix(1,0,0,1,-922,-494)" stroke-linecap="butt">
      <path fill="none" d="M1377.6069 756.1737 L1387.6989 756.1737 L1387.6989 845.8404 L1377.6069 845.8404 Z" clip-path="url(#clipPath2)"/>
    </g>
    <g text-rendering="geometricPrecision" stroke-miterlimit="1.45" shape-rendering="geometricPrecision" font-family="sans-serif" transform="matrix(1,0,0,1,-922,-494)" stroke-linecap="butt">
      <text x="1230.989" xml:space="preserve" y="749.1602" clip-path="url(#clipPath2)" stroke="none">Cambio stato modulo</text>
    </g>
    <g text-rendering="geometricPrecision" stroke-miterlimit="1.45" shape-rendering="geometricPrecision" font-family="sans-serif" transform="matrix(1,0,0,1,-922,-494)" stroke-linecap="butt">
      <text x="1258.0066" xml:space="preserve" y="838.7392" clip-path="url(#clipPath2)" stroke="none">cambio OK</text>
    </g>
    <g fill="url(#linearGradient9)" text-rendering="geometricPrecision" shape-rendering="geometricPrecision" transform="matrix(1,0,0,1,-922,-494)" stroke="url(#linearGradient9)">
      <path d="M1506.8876 509.7075 L1638.2924 509.7075 L1638.2924 582.1667 L1506.8876 582.1667 Z" stroke="none" clip-path="url(#clipPath2)"/>
    </g>
    <g text-rendering="geometricPrecision" stroke-miterlimit="1.45" shape-rendering="geometricPrecision" transform="matrix(1,0,0,1,-922,-494)" stroke-linecap="butt">
      <path fill="none" d="M1506.8876 509.7075 L1638.2924 509.7075 L1638.2924 582.1667 L1506.8876 582.1667 Z" clip-path="url(#clipPath2)"/>
      <text x="1526.5704" xml:space="preserve" y="550.651" clip-path="url(#clipPath2)" font-family="sans-serif" stroke="none">Server (backend)</text>
    </g>
    <g fill="url(#linearGradient10)" text-rendering="geometricPrecision" shape-rendering="geometricPrecision" transform="matrix(1,0,0,1,-922,-494)" stroke="url(#linearGradient10)">
      <path d="M1506.8876 1015.7939 L1638.2924 1015.7939 L1638.2924 1088.2532 L1506.8876 1088.2532 Z" stroke="none" clip-path="url(#clipPath2)"/>
    </g>
    <g text-rendering="geometricPrecision" stroke-miterlimit="1.45" shape-rendering="geometricPrecision" transform="matrix(1,0,0,1,-922,-494)" stroke-linecap="butt">
      <path fill="none" d="M1506.8876 1015.7939 L1638.2924 1015.7939 L1638.2924 1088.2532 L1506.8876 1088.2532 Z" clip-path="url(#clipPath2)"/>
      <text x="1526.5704" xml:space="preserve" y="1056.7374" clip-path="url(#clipPath2)" font-family="sans-serif" stroke="none">Server (backend)</text>
    </g>
    <g fill="url(#linearGradient11)" text-rendering="geometricPrecision" shape-rendering="geometricPrecision" transform="matrix(1,0,0,1,-922,-494)" stroke="url(#linearGradient11)">
      <path d="M1567.5439 640.4263 L1577.636 640.4263 L1577.636 697.112 L1567.5439 697.112 Z" stroke="none" clip-path="url(#clipPath2)"/>
    </g>
    <g text-rendering="geometricPrecision" stroke-miterlimit="1.45" shape-rendering="geometricPrecision" transform="matrix(1,0,0,1,-922,-494)" stroke-linecap="butt">
      <path fill="none" d="M1567.5439 640.4263 L1577.636 640.4263 L1577.636 697.112 L1567.5439 697.112 Z" clip-path="url(#clipPath2)"/>
    </g>
    <g text-rendering="geometricPrecision" stroke-miterlimit="1.45" shape-rendering="geometricPrecision" font-family="sans-serif" transform="matrix(1,0,0,1,-922,-494)" stroke-linecap="butt">
      <text x="1434.9242" xml:space="preserve" y="633.3478" clip-path="url(#clipPath2)" stroke="none">Salvataggio dati</text>
    </g>
    <g text-rendering="geometricPrecision" stroke-miterlimit="1.45" shape-rendering="geometricPrecision" font-family="sans-serif" transform="matrix(1,0,0,1,-922,-494)" stroke-linecap="butt">
      <text x="1427.9135" xml:space="preserve" y="690.0502" clip-path="url(#clipPath2)" stroke="none">aggiunta effettuata</text>
    </g>
    <g fill="url(#linearGradient12)" text-rendering="geometricPrecision" shape-rendering="geometricPrecision" transform="matrix(1,0,0,1,-922,-494)" stroke="url(#linearGradient12)">
      <path d="M1757.4811 771.4503 L1767.5731 771.4503 L1767.5731 828.136 L1757.4811 828.136 Z" stroke="none" clip-path="url(#clipPath2)"/>
    </g>
    <g text-rendering="geometricPrecision" stroke-miterlimit="1.45" shape-rendering="geometricPrecision" transform="matrix(1,0,0,1,-922,-494)" stroke-linecap="butt">
      <path fill="none" d="M1757.4811 771.4503 L1767.5731 771.4503 L1767.5731 828.136 L1757.4811 828.136 Z" clip-path="url(#clipPath2)"/>
    </g>
    <g fill="url(#linearGradient13)" text-rendering="geometricPrecision" shape-rendering="geometricPrecision" transform="matrix(1,0,0,1,-922,-494)" stroke="url(#linearGradient13)">
      <path d="M1696.8247 509.7075 L1828.2295 509.7075 L1828.2295 582.1667 L1696.8247 582.1667 Z" stroke="none" clip-path="url(#clipPath2)"/>
    </g>
    <g text-rendering="geometricPrecision" stroke-miterlimit="1.45" shape-rendering="geometricPrecision" transform="matrix(1,0,0,1,-922,-494)" stroke-linecap="butt">
      <path fill="none" d="M1696.8247 509.7075 L1828.2295 509.7075 L1828.2295 582.1667 L1696.8247 582.1667 Z" clip-path="url(#clipPath2)"/>
      <text x="1703.1775" xml:space="preserve" y="550.651" clip-path="url(#clipPath2)" font-family="sans-serif" stroke="none">Server (GUI manager)</text>
    </g>
    <g fill="url(#linearGradient14)" text-rendering="geometricPrecision" shape-rendering="geometricPrecision" transform="matrix(1,0,0,1,-922,-494)" stroke="url(#linearGradient14)">
      <path d="M1696.8247 1015.7939 L1828.2295 1015.7939 L1828.2295 1088.2532 L1696.8247 1088.2532 Z" stroke="none" clip-path="url(#clipPath2)"/>
    </g>
    <g text-rendering="geometricPrecision" stroke-miterlimit="1.45" shape-rendering="geometricPrecision" transform="matrix(1,0,0,1,-922,-494)" stroke-linecap="butt">
      <path fill="none" d="M1696.8247 1015.7939 L1828.2295 1015.7939 L1828.2295 1088.2532 L1696.8247 1088.2532 Z" clip-path="url(#clipPath2)"/>
      <text x="1703.1775" xml:space="preserve" y="1056.7374" clip-path="url(#clipPath2)" font-family="sans-serif" stroke="none">Server (GUI manager)</text>
    </g>
    <g fill="url(#linearGradient15)" text-rendering="geometricPrecision" shape-rendering="geometricPrecision" transform="matrix(1,0,0,1,-922,-494)" stroke="url(#linearGradient15)">
      <path d="M1757.4811 650.4641 L1767.5731 650.4641 L1767.5731 687.0743 L1757.4811 687.0743 Z" stroke="none" clip-path="url(#clipPath2)"/>
    </g>
    <g text-rendering="geometricPrecision" stroke-miterlimit="1.45" shape-rendering="geometricPrecision" transform="matrix(1,0,0,1,-922,-494)" stroke-linecap="butt">
      <path fill="none" d="M1757.4811 650.4641 L1767.5731 650.4641 L1767.5731 687.0743 L1757.4811 687.0743 Z" clip-path="url(#clipPath2)"/>
    </g>
    <g text-rendering="geometricPrecision" stroke-miterlimit="1.45" shape-rendering="geometricPrecision" font-family="sans-serif" transform="matrix(1,0,0,1,-922,-494)" stroke-linecap="butt">
      <text x="1594.8525" xml:space="preserve" y="641.7036" clip-path="url(#clipPath2)" stroke="none">Aggiornamento lista butlers</text>
    </g>
    <g text-rendering="geometricPrecision" stroke-miterlimit="1.45" shape-rendering="geometricPrecision" font-family="sans-serif" transform="matrix(1,0,0,1,-922,-494)" stroke-linecap="butt">
      <text x="1630.5391" xml:space="preserve" y="681.1445" clip-path="url(#clipPath2)" stroke="none">lista presenze</text>
    </g>
    <g fill="url(#linearGradient16)" text-rendering="geometricPrecision" shape-rendering="geometricPrecision" transform="matrix(1,0,0,1,-922,-494)" stroke="url(#linearGradient16)">
      <path d="M1187.6698 885.9838 L1197.7617 885.9838 L1197.7617 975.6505 L1187.6698 975.6505 Z" stroke="none" clip-path="url(#clipPath2)"/>
    </g>
    <g text-rendering="geometricPrecision" stroke-miterlimit="1.45" shape-rendering="geometricPrecision" transform="matrix(1,0,0,1,-922,-494)" stroke-linecap="butt">
      <path fill="none" d="M1187.6698 885.9838 L1197.7617 885.9838 L1197.7617 975.6505 L1187.6698 975.6505 Z" clip-path="url(#clipPath2)"/>
    </g>
    <g fill="url(#linearGradient17)" text-rendering="geometricPrecision" shape-rendering="geometricPrecision" transform="matrix(1,0,0,1,-922,-494)" stroke="url(#linearGradient17)">
      <path d="M1377.6069 885.9838 L1387.6989 885.9838 L1387.6989 975.6505 L1377.6069 975.6505 Z" stroke="none" clip-path="url(#clipPath2)"/>
    </g>
    <g text-rendering="geometricPrecision" stroke-miterlimit="1.45" shape-rendering="geometricPrecision" transform="matrix(1,0,0,1,-922,-494)" stroke-linecap="butt">
      <path fill="none" d="M1377.6069 885.9838 L1387.6989 885.9838 L1387.6989 975.6505 L1377.6069 975.6505 Z" clip-path="url(#clipPath2)"/>
    </g>
    <g text-rendering="geometricPrecision" stroke-miterlimit="1.45" shape-rendering="geometricPrecision" font-family="sans-serif" transform="matrix(1,0,0,1,-922,-494)" stroke-linecap="butt">
      <text x="1241.9929" xml:space="preserve" y="877.9873" clip-path="url(#clipPath2)" stroke="none">Richiesta dettagli</text>
    </g>
    <g text-rendering="geometricPrecision" stroke-miterlimit="1.45" shape-rendering="geometricPrecision" font-family="sans-serif" transform="matrix(1,0,0,1,-922,-494)" stroke-linecap="butt">
      <text x="1211.9695" xml:space="preserve" y="967.5663" clip-path="url(#clipPath2)" stroke="none">dati inventario e connessioni</text>
    </g>
    <g fill="url(#linearGradient18)" text-rendering="geometricPrecision" shape-rendering="geometricPrecision" transform="matrix(1,0,0,1,-922,-494)" stroke="url(#linearGradient18)">
      <path d="M1567.5439 902.4743 L1577.636 902.4743 L1577.636 959.16 L1567.5439 959.16 Z" stroke="none" clip-path="url(#clipPath2)"/>
    </g>
    <g text-rendering="geometricPrecision" stroke-miterlimit="1.45" shape-rendering="geometricPrecision" transform="matrix(1,0,0,1,-922,-494)" stroke-linecap="butt">
      <path fill="none" d="M1567.5439 902.4743 L1577.636 902.4743 L1577.636 959.16 L1567.5439 959.16 Z" clip-path="url(#clipPath2)"/>
    </g>
    <g text-rendering="geometricPrecision" stroke-miterlimit="1.45" shape-rendering="geometricPrecision" font-family="sans-serif" transform="matrix(1,0,0,1,-922,-494)" stroke-linecap="butt">
      <text x="1623.5371" xml:space="preserve" y="941.754" clip-path="url(#clipPath2)" stroke="none">caricamento dati</text>
    </g>
    <g text-rendering="geometricPrecision" stroke-miterlimit="1.45" shape-rendering="geometricPrecision" font-family="sans-serif" transform="matrix(1,0,0,1,-922,-494)" stroke-linecap="butt">
      <text x="1621.8672" xml:space="preserve" y="906.8471" clip-path="url(#clipPath2)" stroke="none">Richiesta dettagli</text>
    </g>
    <g fill="url(#linearGradient19)" text-rendering="geometricPrecision" shape-rendering="geometricPrecision" transform="matrix(1,0,0,1,-922,-494)" stroke="url(#linearGradient19)">
      <path d="M1757.4811 912.512 L1767.5731 912.512 L1767.5731 949.1223 L1757.4811 949.1223 Z" stroke="none" clip-path="url(#clipPath2)"/>
    </g>
    <g text-rendering="geometricPrecision" stroke-miterlimit="1.45" shape-rendering="geometricPrecision" transform="matrix(1,0,0,1,-922,-494)" stroke-linecap="butt">
      <path fill="none" d="M1757.4811 912.512 L1767.5731 912.512 L1767.5731 949.1223 L1757.4811 949.1223 Z" clip-path="url(#clipPath2)"/>
    </g>
    <g text-rendering="geometricPrecision" stroke-miterlimit="1.45" shape-rendering="geometricPrecision" font-family="sans-serif" transform="matrix(1,0,0,1,-922,-494)" stroke-linecap="butt">
      <text x="1585.3844" xml:space="preserve" y="767.5415" clip-path="url(#clipPath2)" stroke="none">Cambio stato modulo</text>
    </g>
    <g text-rendering="geometricPrecision" stroke-miterlimit="1.45" shape-rendering="geometricPrecision" font-family="sans-serif" transform="matrix(1,0,0,1,-922,-494)" stroke-linecap="butt">
      <text x="1585.5906" xml:space="preserve" y="822.7725" clip-path="url(#clipPath2)" stroke="none">aggiornamento dati</text>
    </g>
    <g text-rendering="geometricPrecision" stroke-miterlimit="1.45" shape-rendering="geometricPrecision" font-family="sans-serif" transform="matrix(1,0,0,1,-922,-494)" stroke-linecap="butt">
      <text x="1431.9301" xml:space="preserve" y="895.5757" clip-path="url(#clipPath2)" stroke="none">Richiesta dettagli</text>
    </g>
    <g text-rendering="geometricPrecision" stroke-miterlimit="1.45" shape-rendering="geometricPrecision" font-family="sans-serif" transform="matrix(1,0,0,1,-922,-494)" stroke-linecap="butt">
      <text x="1411.2377" xml:space="preserve" y="951.135" clip-path="url(#clipPath2)" stroke="none">aggiornamento database</text>
    </g>
    <g fill="url(#linearGradient20)" text-rendering="geometricPrecision" shape-rendering="geometricPrecision" transform="matrix(1,0,0,1,-922,-494)" stroke="url(#linearGradient20)">
      <path d="M937.0763 509.7075 L1068.4811 509.7075 L1068.4811 582.1667 L937.0763 582.1667 Z" stroke="none" clip-path="url(#clipPath2)"/>
    </g>
    <g text-rendering="geometricPrecision" stroke-miterlimit="1.45" shape-rendering="geometricPrecision" transform="matrix(1,0,0,1,-922,-494)" stroke-linecap="butt">
      <path fill="none" d="M937.0763 509.7075 L1068.4811 509.7075 L1068.4811 582.1667 L937.0763 582.1667 Z" clip-path="url(#clipPath2)"/>
      <text x="958.7572" xml:space="preserve" y="550.651" clip-path="url(#clipPath2)" font-family="sans-serif" stroke="none">Butler (backend)</text>
    </g>
    <g fill="url(#linearGradient21)" text-rendering="geometricPrecision" shape-rendering="geometricPrecision" transform="matrix(1,0,0,1,-922,-494)" stroke="url(#linearGradient21)">
      <path d="M937.0763 1015.7939 L1068.4811 1015.7939 L1068.4811 1088.2532 L937.0763 1088.2532 Z" stroke="none" clip-path="url(#clipPath2)"/>
    </g>
    <g text-rendering="geometricPrecision" stroke-miterlimit="1.45" shape-rendering="geometricPrecision" transform="matrix(1,0,0,1,-922,-494)" stroke-linecap="butt">
      <path fill="none" d="M937.0763 1015.7939 L1068.4811 1015.7939 L1068.4811 1088.2532 L937.0763 1088.2532 Z" clip-path="url(#clipPath2)"/>
      <text x="958.7572" xml:space="preserve" y="1056.7374" clip-path="url(#clipPath2)" font-family="sans-serif" stroke="none">Butler (backend)</text>
    </g>
    <g fill="url(#linearGradient22)" text-rendering="geometricPrecision" shape-rendering="geometricPrecision" transform="matrix(1,0,0,1,-922,-494)" stroke="url(#linearGradient22)">
      <path d="M997.7327 642.8541 L1007.8246 642.8541 L1007.8246 699.5397 L997.7327 699.5397 Z" stroke="none" clip-path="url(#clipPath2)"/>
    </g>
    <g text-rendering="geometricPrecision" stroke-miterlimit="1.45" shape-rendering="geometricPrecision" transform="matrix(1,0,0,1,-922,-494)" stroke-linecap="butt">
      <path fill="none" d="M997.7327 642.8541 L1007.8246 642.8541 L1007.8246 699.5397 L997.7327 699.5397 Z" clip-path="url(#clipPath2)"/>
    </g>
    <g fill="url(#linearGradient23)" text-rendering="geometricPrecision" shape-rendering="geometricPrecision" transform="matrix(1,0,0,1,-922,-494)" stroke="url(#linearGradient23)">
      <path d="M997.7327 902.4743 L1007.8246 902.4743 L1007.8246 959.16 L997.7327 959.16 Z" stroke="none" clip-path="url(#clipPath2)"/>
    </g>
    <g text-rendering="geometricPrecision" stroke-miterlimit="1.45" shape-rendering="geometricPrecision" transform="matrix(1,0,0,1,-922,-494)" stroke-linecap="butt">
      <path fill="none" d="M997.7327 902.4743 L1007.8246 902.4743 L1007.8246 959.16 L997.7327 959.16 Z" clip-path="url(#clipPath2)"/>
    </g>
    <g text-rendering="geometricPrecision" stroke-miterlimit="1.45" shape-rendering="geometricPrecision" font-family="sans-serif" transform="matrix(1,0,0,1,-922,-494)" stroke-linecap="butt">
      <text x="1040.3898" xml:space="preserve" y="620.2628" clip-path="url(#clipPath2)" stroke="none">Raccolta informazioni</text>
      <text x="1052.7208" xml:space="preserve" y="634.964" clip-path="url(#clipPath2)" stroke="none">in base ai moduli</text>
    </g>
    <g text-rendering="geometricPrecision" stroke-miterlimit="1.45" shape-rendering="geometricPrecision" font-family="sans-serif" transform="matrix(1,0,0,1,-922,-494)" stroke-linecap="butt">
      <text x="1048.7159" xml:space="preserve" y="690.6661" clip-path="url(#clipPath2)" stroke="none">autenticazione OK</text>
    </g>
    <g fill="url(#linearGradient24)" text-rendering="geometricPrecision" shape-rendering="geometricPrecision" transform="matrix(1,0,0,1,-922,-494)" stroke="url(#linearGradient24)">
      <path d="M997.7327 772.6642 L1007.8246 772.6642 L1007.8246 829.3499 L997.7327 829.3499 Z" stroke="none" clip-path="url(#clipPath2)"/>
    </g>
    <g text-rendering="geometricPrecision" stroke-miterlimit="1.45" shape-rendering="geometricPrecision" transform="matrix(1,0,0,1,-922,-494)" stroke-linecap="butt">
      <path fill="none" d="M997.7327 772.6642 L1007.8246 772.6642 L1007.8246 829.3499 L997.7327 829.3499 Z" clip-path="url(#clipPath2)"/>
    </g>
    <g text-rendering="geometricPrecision" stroke-miterlimit="1.45" shape-rendering="geometricPrecision" font-family="sans-serif" transform="matrix(1,0,0,1,-922,-494)" stroke-linecap="butt">
      <text x="1068.0695" xml:space="preserve" y="822.6104" clip-path="url(#clipPath2)" stroke="none">cambio OK</text>
    </g>
    <g text-rendering="geometricPrecision" stroke-miterlimit="1.45" shape-rendering="geometricPrecision" font-family="sans-serif" transform="matrix(1,0,0,1,-922,-494)" stroke-linecap="butt">
      <text x="1028.7062" xml:space="preserve" y="765.804" clip-path="url(#clipPath2)" stroke="none">Salvataggio cambiamento</text>
    </g>
    <g text-rendering="geometricPrecision" stroke-miterlimit="1.45" shape-rendering="geometricPrecision" font-family="sans-serif" transform="matrix(1,0,0,1,-922,-494)" stroke-linecap="butt">
      <text x="1052.0558" xml:space="preserve" y="897.1051" clip-path="url(#clipPath2)" stroke="none">Richiesta dettagli</text>
    </g>
    <g text-rendering="geometricPrecision" stroke-miterlimit="1.45" shape-rendering="geometricPrecision" font-family="sans-serif" transform="matrix(1,0,0,1,-922,-494)" stroke-linecap="butt">
      <text x="1040.3898" xml:space="preserve" y="938.9919" clip-path="url(#clipPath2)" stroke="none">Raccolta informazioni</text>
      <text x="1052.7208" xml:space="preserve" y="953.6931" clip-path="url(#clipPath2)" stroke="none">in base ai moduli</text>
    </g>
    <g text-rendering="geometricPrecision" stroke-miterlimit="1.45" shape-rendering="geometricPrecision" transform="matrix(1,0,0,1,-922,-494)" stroke-linecap="butt">
      <path fill="none" d="M1192.7158 582.1756 L1192.7158 626.382" clip-path="url(#clipPath2)"/>
    </g>
    <g text-rendering="geometricPrecision" stroke-miterlimit="1.45" shape-rendering="geometricPrecision" transform="matrix(1,0,0,1,-922,-494)" stroke-linecap="butt">
      <path fill="none" d="M1197.7269 626.3816 L1369.5863 626.3816" clip-path="url(#clipPath2)"/>
      <path d="M1377.5863 626.3816 L1365.5863 621.3816 L1368.5863 626.3816 L1365.5863 631.3816 Z" clip-path="url(#clipPath2)" stroke="none"/>
      <path fill="none" d="M1382.6528 582.1756 L1382.6528 626.382" clip-path="url(#clipPath2)"/>
      <path fill="none" stroke-dasharray="6,2" d="M1377.5984 716.0073 L1205.7261 716.0073" clip-path="url(#clipPath2)"/>
      <path stroke-dasharray="6,2" d="M1197.7261 716.0073 L1209.7261 721.0073 L1206.7261 716.0073 L1209.7261 711.0073 Z" clip-path="url(#clipPath2)" stroke="none"/>
      <path fill="none" d="M1192.7158 716.041 L1192.7158 756.1592" clip-path="url(#clipPath2)"/>
      <path fill="none" stroke-dasharray="6,2" d="M1197.7703 845.8174 L1369.6426 845.8174" clip-path="url(#clipPath2)"/>
      <path stroke-dasharray="6,2" d="M1377.6426 845.8174 L1365.6426 840.8174 L1368.6426 845.8174 L1365.6426 850.8174 Z" clip-path="url(#clipPath2)" stroke="none"/>
      <path fill="none" d="M1382.6528 716.041 L1382.6528 756.1592" clip-path="url(#clipPath2)"/>
      <path fill="none" d="M1377.5984 756.1966 L1205.7261 756.1966" clip-path="url(#clipPath2)"/>
      <path d="M1197.7261 756.1966 L1209.7261 761.1966 L1206.7261 756.1966 L1209.7261 751.1966 Z" clip-path="url(#clipPath2)" stroke="none"/>
      <path fill="none" d="M1572.59 582.1929 L1572.59 640.4036" clip-path="url(#clipPath2)"/>
      <path fill="none" d="M1387.7391 640.424 L1559.522 640.7695" clip-path="url(#clipPath2)"/>
      <path d="M1567.522 640.7855 L1555.532 635.7615 L1558.522 640.7675 L1555.512 645.7614 Z" clip-path="url(#clipPath2)" stroke="none"/>
      <path fill="none" stroke-dasharray="6,2" d="M1572.59 697.1144 L1395.7125 697.1144" clip-path="url(#clipPath2)"/>
      <path stroke-dasharray="6,2" d="M1387.7125 697.1144 L1399.7125 702.1144 L1396.7125 697.1144 L1399.7125 692.1144 Z" clip-path="url(#clipPath2)" stroke="none"/>
      <path fill="none" stroke-dasharray="6,2" d="M1387.7391 829.3523 L1749.4841 828.1647" clip-path="url(#clipPath2)"/>
      <path stroke-dasharray="6,2" d="M1757.4841 828.1384 L1745.4678 823.1778 L1748.4841 828.168 L1745.5006 833.1778 Z" clip-path="url(#clipPath2)" stroke="none"/>
      <path fill="none" d="M1762.5271 771.4479 L1395.7311 772.6357" clip-path="url(#clipPath2)"/>
      <path d="M1387.7311 772.6616 L1399.7472 777.6228 L1396.7311 772.6325 L1399.7148 767.6228 Z" clip-path="url(#clipPath2)" stroke="none"/>
      <path fill="none" d="M1762.5271 582.1415 L1762.5271 650.4427" clip-path="url(#clipPath2)"/>
      <path fill="none" stroke-dasharray="6,2" d="M1577.6432 687.0956 L1750.2803 687.0956" clip-path="url(#clipPath2)"/>
      <path stroke-dasharray="6,2" d="M1758.2803 687.0956 L1746.2803 682.0956 L1749.2803 687.0956 L1746.2803 692.0956 Z" clip-path="url(#clipPath2)" stroke="none"/>
      <path fill="none" d="M1762.5271 771.4196 L1762.5271 687.0889" clip-path="url(#clipPath2)"/>
      <path fill="none" d="M1762.5271 650.4427 L1585.6639 650.4427" clip-path="url(#clipPath2)"/>
      <path d="M1577.6639 650.4427 L1589.6639 655.4427 L1586.6639 650.4427 L1589.6639 645.4427 Z" clip-path="url(#clipPath2)" stroke="none"/>
      <path fill="none" d="M1192.7158 845.8511 L1192.7158 885.9694" clip-path="url(#clipPath2)"/>
      <path fill="none" d="M1192.7158 975.6481 L1192.7158 1015.8124" clip-path="url(#clipPath2)"/>
      <path fill="none" d="M1382.6528 845.8511 L1382.6528 885.9694" clip-path="url(#clipPath2)"/>
      <path fill="none" stroke-dasharray="6,2" d="M1197.7703 975.6276 L1369.6426 975.6276" clip-path="url(#clipPath2)"/>
      <path stroke-dasharray="6,2" d="M1377.6426 975.6276 L1365.6426 970.6276 L1368.6426 975.6276 L1365.6426 980.6276 Z" clip-path="url(#clipPath2)" stroke="none"/>
      <path fill="none" d="M1382.6528 975.6481 L1382.6528 1015.8124" clip-path="url(#clipPath2)"/>
      <path fill="none" d="M1377.5984 886.0067 L1205.7261 886.0067" clip-path="url(#clipPath2)"/>
      <path d="M1197.7261 886.0067 L1209.7261 891.0067 L1206.7261 886.0067 L1209.7261 881.0067 Z" clip-path="url(#clipPath2)" stroke="none"/>
      <path fill="none" d="M1572.59 697.1428 L1572.59 902.4921" clip-path="url(#clipPath2)"/>
      <path fill="none" stroke-dasharray="6,2" d="M1387.7391 959.1624 L1559.547 959.1624" clip-path="url(#clipPath2)"/>
      <path stroke-dasharray="6,2" d="M1567.547 959.1624 L1555.547 954.1624 L1558.547 959.1624 L1555.547 964.1624 Z" clip-path="url(#clipPath2)" stroke="none"/>
      <path fill="none" d="M1572.59 1015.7741 L1572.59 959.15" clip-path="url(#clipPath2)"/>
      <path fill="none" d="M1572.59 902.4719 L1395.7305 902.4719" clip-path="url(#clipPath2)"/>
      <path d="M1387.7305 902.4719 L1399.7305 907.4719 L1396.7305 902.4719 L1399.7305 897.4719 Z" clip-path="url(#clipPath2)" stroke="none"/>
      <path fill="none" d="M1762.5271 828.1667 L1762.5271 912.4975" clip-path="url(#clipPath2)"/>
      <path fill="none" stroke-dasharray="6,2" d="M1577.6355 949.1273 L1749.4684 948.6409" clip-path="url(#clipPath2)"/>
      <path stroke-dasharray="6,2" d="M1757.4684 948.6182 L1745.4542 943.6522 L1748.4684 948.6437 L1745.4825 953.6522 Z" clip-path="url(#clipPath2)" stroke="none"/>
      <path fill="none" d="M1762.5271 949.1343 L1762.5271 1015.7762" clip-path="url(#clipPath2)"/>
      <path fill="none" d="M1762.5271 912.4907 L1585.5989 912.4907" clip-path="url(#clipPath2)"/>
      <path d="M1577.5989 912.4907 L1589.5989 917.4907 L1586.5989 912.4907 L1589.5989 907.4907 Z" clip-path="url(#clipPath2)" stroke="none"/>
      <path fill="none" d="M1002.7787 582.1756 L1002.7787 642.8127" clip-path="url(#clipPath2)"/>
      <path fill="none" stroke-dasharray="6,2" d="M1187.6514 699.5421 L1015.0739 699.5421" clip-path="url(#clipPath2)"/>
      <path stroke-dasharray="6,2" d="M1007.0739 699.5421 L1019.0739 704.5421 L1016.0739 699.5421 L1019.0739 694.5421 Z" clip-path="url(#clipPath2)" stroke="none"/>
      <path fill="none" d="M1002.7787 642.8516 L1179.6389 642.8516" clip-path="url(#clipPath2)"/>
      <path d="M1187.6389 642.8516 L1175.6389 637.8516 L1178.6389 642.8516 L1175.6389 647.8516 Z" clip-path="url(#clipPath2)" stroke="none"/>
      <path fill="none" d="M1002.7787 1015.7741 L1002.7787 959.15" clip-path="url(#clipPath2)"/>
      <path fill="none" d="M1187.7137 903.0453 L1015.8314 903.0453" clip-path="url(#clipPath2)"/>
      <path d="M1007.8314 903.0453 L1019.8314 908.0453 L1016.8314 903.0453 L1019.8314 898.0453 Z" clip-path="url(#clipPath2)" stroke="none"/>
      <path fill="none" stroke-dasharray="6,2" d="M1002.7787 959.1624 L1179.6478 959.1624" clip-path="url(#clipPath2)"/>
      <path stroke-dasharray="6,2" d="M1187.6478 959.1624 L1175.6478 954.1624 L1178.6478 959.1624 L1175.6478 964.1624 Z" clip-path="url(#clipPath2)" stroke="none"/>
      <path fill="none" d="M1002.7787 699.5612 L1002.7787 772.624" clip-path="url(#clipPath2)"/>
      <path fill="none" d="M1002.7787 902.4529 L1002.7787 829.3901" clip-path="url(#clipPath2)"/>
      <path fill="none" d="M1187.6681 772.9665 L1015.8375 772.9665" clip-path="url(#clipPath2)"/>
      <path d="M1007.8375 772.9665 L1019.8375 777.9665 L1016.8375 772.9665 L1019.8375 767.9665 Z" clip-path="url(#clipPath2)" stroke="none"/>
      <path fill="none" stroke-dasharray="6,2" d="M1002.7787 829.3523 L1179.6691 829.3523" clip-path="url(#clipPath2)"/>
      <path stroke-dasharray="6,2" d="M1187.6691 829.3523 L1175.6691 824.3523 L1178.6691 829.3523 L1175.6691 834.3523 Z" clip-path="url(#clipPath2)" stroke="none"/>
    </g>
  </g>
</svg>
