<?xml version="1.0" encoding="UTF-8"?><svg xmlns="http://www.w3.org/2000/svg" xmlns:xlink="http://www.w3.org/1999/xlink" fill-opacity="1" color-rendering="auto" color-interpolation="auto" text-rendering="auto" stroke="black" stroke-linecap="square" width="663" stroke-miterlimit="10" shape-rendering="auto" stroke-opacity="1" fill="black" stroke-dasharray="none" font-weight="normal" stroke-width="1" height="1039" font-family="'Dialog'" font-style="normal" stroke-linejoin="miter" font-size="12px" stroke-dashoffset="0" image-rendering="auto">
  <!--Generated by ySVG 2.5-->
  <defs id="genericDefs"/>
  <g>
    <defs id="defs1">
      <linearGradient x1="283.04" gradientUnits="userSpaceOnUse" x2="369.9008" y1="241.0568" y2="286.1768" id="linearGradient1" spreadMethod="reflect">
        <stop stop-opacity="1" stop-color="rgb(255,153,204)" offset="0%"/>
        <stop stop-opacity="1" stop-color="rgb(255,153,204)" offset="100%"/>
      </linearGradient>
      <linearGradient x1="430.0448" gradientUnits="userSpaceOnUse" x2="561.4496" y1="329.8464" y2="402.3056" id="linearGradient2" spreadMethod="reflect">
        <stop stop-opacity="1" stop-color="rgb(232,238,247)" offset="0%"/>
        <stop stop-opacity="1" stop-color="rgb(183,201,227)" offset="100%"/>
      </linearGradient>
      <linearGradient x1="608.0679" gradientUnits="userSpaceOnUse" x2="739.4728" y1="432.3056" y2="504.7648" id="linearGradient3" spreadMethod="reflect">
        <stop stop-opacity="1" stop-color="rgb(232,238,247)" offset="0%"/>
        <stop stop-opacity="1" stop-color="rgb(183,201,227)" offset="100%"/>
      </linearGradient>
      <linearGradient x1="608.0679" gradientUnits="userSpaceOnUse" x2="739.4728" y1="329.8464" y2="402.3056" id="linearGradient4" spreadMethod="reflect">
        <stop stop-opacity="1" stop-color="rgb(232,238,247)" offset="0%"/>
        <stop stop-opacity="1" stop-color="rgb(183,201,227)" offset="100%"/>
      </linearGradient>
      <linearGradient x1="260.768" gradientUnits="userSpaceOnUse" x2="392.1728" y1="329.8464" y2="402.3056" id="linearGradient5" spreadMethod="reflect">
        <stop stop-opacity="1" stop-color="rgb(232,238,247)" offset="0%"/>
        <stop stop-opacity="1" stop-color="rgb(183,201,227)" offset="100%"/>
      </linearGradient>
      <linearGradient x1="724.4013" gradientUnits="userSpaceOnUse" x2="855.8061" y1="640.621" y2="713.0802" id="linearGradient6" spreadMethod="reflect">
        <stop stop-opacity="1" stop-color="rgb(232,238,247)" offset="0%"/>
        <stop stop-opacity="1" stop-color="rgb(183,201,227)" offset="100%"/>
      </linearGradient>
      <linearGradient x1="724.4013" gradientUnits="userSpaceOnUse" x2="855.8061" y1="746.4772" y2="818.9363" id="linearGradient7" spreadMethod="reflect">
        <stop stop-opacity="1" stop-color="rgb(232,238,247)" offset="0%"/>
        <stop stop-opacity="1" stop-color="rgb(183,201,227)" offset="100%"/>
      </linearGradient>
      <linearGradient x1="724.4013" gradientUnits="userSpaceOnUse" x2="855.8061" y1="534.7648" y2="607.224" id="linearGradient8" spreadMethod="reflect">
        <stop stop-opacity="1" stop-color="rgb(232,238,247)" offset="0%"/>
        <stop stop-opacity="1" stop-color="rgb(183,201,227)" offset="100%"/>
      </linearGradient>
      <linearGradient x1="484.0646" gradientUnits="userSpaceOnUse" x2="615.4694" y1="640.621" y2="713.0802" id="linearGradient9" spreadMethod="reflect">
        <stop stop-opacity="1" stop-color="rgb(232,238,247)" offset="0%"/>
        <stop stop-opacity="1" stop-color="rgb(183,201,227)" offset="100%"/>
      </linearGradient>
      <linearGradient x1="484.0646" gradientUnits="userSpaceOnUse" x2="615.4694" y1="534.7648" y2="607.224" id="linearGradient10" spreadMethod="reflect">
        <stop stop-opacity="1" stop-color="rgb(232,238,247)" offset="0%"/>
        <stop stop-opacity="1" stop-color="rgb(183,201,227)" offset="100%"/>
      </linearGradient>
      <linearGradient x1="300.4991" gradientUnits="userSpaceOnUse" x2="431.904" y1="958.1895" y2="1030.6487" id="linearGradient11" spreadMethod="reflect">
        <stop stop-opacity="1" stop-color="rgb(232,238,247)" offset="0%"/>
        <stop stop-opacity="1" stop-color="rgb(183,201,227)" offset="100%"/>
      </linearGradient>
      <linearGradient x1="484.0646" gradientUnits="userSpaceOnUse" x2="615.4694" y1="852.3334" y2="924.7925" id="linearGradient12" spreadMethod="reflect">
        <stop stop-opacity="1" stop-color="rgb(232,238,247)" offset="0%"/>
        <stop stop-opacity="1" stop-color="rgb(183,201,227)" offset="100%"/>
      </linearGradient>
      <linearGradient x1="484.0646" gradientUnits="userSpaceOnUse" x2="615.4694" y1="746.4772" y2="818.9363" id="linearGradient13" spreadMethod="reflect">
        <stop stop-opacity="1" stop-color="rgb(232,238,247)" offset="0%"/>
        <stop stop-opacity="1" stop-color="rgb(183,201,227)" offset="100%"/>
      </linearGradient>
      <linearGradient x1="484.0646" gradientUnits="userSpaceOnUse" x2="615.4694" y1="958.1895" y2="1030.6487" id="linearGradient14" spreadMethod="reflect">
        <stop stop-opacity="1" stop-color="rgb(232,238,247)" offset="0%"/>
        <stop stop-opacity="1" stop-color="rgb(183,201,227)" offset="100%"/>
      </linearGradient>
      <linearGradient x1="300.4991" gradientUnits="userSpaceOnUse" x2="431.904" y1="1060.6487" y2="1133.1079" id="linearGradient15" spreadMethod="reflect">
        <stop stop-opacity="1" stop-color="rgb(232,238,247)" offset="0%"/>
        <stop stop-opacity="1" stop-color="rgb(183,201,227)" offset="100%"/>
      </linearGradient>
      <linearGradient x1="300.4991" gradientUnits="userSpaceOnUse" x2="431.904" y1="1176.5486" y2="1249.0078" id="linearGradient16" spreadMethod="reflect">
        <stop stop-opacity="1" stop-color="rgb(232,238,247)" offset="0%"/>
        <stop stop-opacity="1" stop-color="rgb(183,201,227)" offset="100%"/>
      </linearGradient>
      <linearGradient x1="484.0646" gradientUnits="userSpaceOnUse" x2="615.4694" y1="1060.6487" y2="1133.1079" id="linearGradient17" spreadMethod="reflect">
        <stop stop-opacity="1" stop-color="rgb(232,238,247)" offset="0%"/>
        <stop stop-opacity="1" stop-color="rgb(183,201,227)" offset="100%"/>
      </linearGradient>
      <clipPath clipPathUnits="userSpaceOnUse" id="clipPath1">
        <path d="M0 0 L663 0 L663 1039 L0 1039 L0 0 Z"/>
      </clipPath>
      <clipPath clipPathUnits="userSpaceOnUse" id="clipPath2">
        <path d="M245 226 L908 226 L908 1265 L245 1265 L245 226 Z"/>
      </clipPath>
    </defs>
    <g fill="white" text-rendering="geometricPrecision" shape-rendering="geometricPrecision" transform="translate(-245,-226)" stroke="white">
      <rect x="245" width="663" height="1039" y="226" clip-path="url(#clipPath2)" stroke="none"/>
    </g>
    <g fill="url(#linearGradient1)" text-rendering="geometricPrecision" shape-rendering="geometricPrecision" transform="matrix(1,0,0,1,-245,-226)" stroke="url(#linearGradient1)">
      <ellipse rx="43.4304" ry="22.56" clip-path="url(#clipPath2)" cx="326.4704" cy="263.6168" stroke="none"/>
    </g>
    <g text-rendering="geometricPrecision" stroke-miterlimit="1.45" shape-rendering="geometricPrecision" transform="matrix(1,0,0,1,-245,-226)" stroke-linecap="butt">
      <ellipse rx="43.4304" fill="none" ry="22.56" clip-path="url(#clipPath2)" cx="326.4704" cy="263.6168"/>
      <text x="312.4636" xml:space="preserve" y="268.3307" clip-path="url(#clipPath2)" font-family="sans-serif" stroke="none">Inizio</text>
    </g>
    <g fill="url(#linearGradient2)" text-rendering="geometricPrecision" shape-rendering="geometricPrecision" transform="matrix(1,0,0,1,-245,-226)" stroke="url(#linearGradient2)">
      <path d="M430.0448 329.8464 L561.4496 329.8464 L561.4496 402.3056 L430.0448 402.3056 Z" stroke="none" clip-path="url(#clipPath2)"/>
    </g>
    <g text-rendering="geometricPrecision" stroke-miterlimit="1.45" shape-rendering="geometricPrecision" transform="matrix(1,0,0,1,-245,-226)" stroke-linecap="butt">
      <path fill="none" d="M430.0448 329.8464 L561.4496 329.8464 L561.4496 402.3056 L430.0448 402.3056 Z" clip-path="url(#clipPath2)"/>
      <text x="453.5714" xml:space="preserve" y="363.4393" clip-path="url(#clipPath2)" font-family="sans-serif" stroke="none">L'admin esegue</text>
      <text x="478.7374" xml:space="preserve" y="378.1404" clip-path="url(#clipPath2)" font-family="sans-serif" stroke="none">il login</text>
    </g>
    <g text-rendering="geometricPrecision" stroke-miterlimit="1.45" shape-rendering="geometricPrecision" font-family="sans-serif" transform="matrix(1,0,0,1,-245,-226)" stroke-linecap="butt">
      <text x="653.2986" xml:space="preserve" y="317.416" clip-path="url(#clipPath2)" stroke="none">No</text>
    </g>
    <g fill="url(#linearGradient3)" text-rendering="geometricPrecision" shape-rendering="geometricPrecision" transform="matrix(1,0,0,1,-245,-226)" stroke="url(#linearGradient3)">
      <path d="M608.0679 432.3056 L739.4728 432.3056 L739.4728 504.7648 L608.0679 504.7648 Z" stroke="none" clip-path="url(#clipPath2)"/>
    </g>
    <g text-rendering="geometricPrecision" stroke-miterlimit="1.45" shape-rendering="geometricPrecision" transform="matrix(1,0,0,1,-245,-226)" stroke-linecap="butt">
      <path fill="none" d="M608.0679 432.3056 L739.4728 432.3056 L739.4728 504.7648 L608.0679 504.7648 Z" clip-path="url(#clipPath2)"/>
      <text x="644.7576" xml:space="preserve" y="465.8985" clip-path="url(#clipPath2)" font-family="sans-serif" stroke="none">Accesso al</text>
      <text x="626.4119" xml:space="preserve" y="480.5996" clip-path="url(#clipPath2)" font-family="sans-serif" stroke="none">centro di controllo</text>
    </g>
    <g text-rendering="geometricPrecision" stroke-miterlimit="1.45" shape-rendering="geometricPrecision" font-family="sans-serif" transform="matrix(1,0,0,1,-245,-226)" stroke-linecap="butt">
      <text x="798.3486" xml:space="preserve" y="734.4926" clip-path="url(#clipPath2)" stroke="none">Sì</text>
    </g>
    <g fill="url(#linearGradient4)" text-rendering="geometricPrecision" shape-rendering="geometricPrecision" transform="matrix(1,0,0,1,-245,-226)" stroke="url(#linearGradient4)">
      <path d="M673.7703 329.8464 L739.4728 366.076 L673.7703 402.3056 L608.0679 366.076 Z" stroke="none" clip-path="url(#clipPath2)"/>
    </g>
    <g text-rendering="geometricPrecision" stroke-miterlimit="1.45" shape-rendering="geometricPrecision" transform="matrix(1,0,0,1,-245,-226)" stroke-linecap="butt">
      <path fill="none" d="M673.7703 329.8464 L739.4728 366.076 L673.7703 402.3056 L608.0679 366.076 Z" clip-path="url(#clipPath2)"/>
      <text x="641.7459" xml:space="preserve" y="370.7899" clip-path="url(#clipPath2)" font-family="sans-serif" stroke="none">Login valido</text>
    </g>
    <g fill="url(#linearGradient5)" text-rendering="geometricPrecision" shape-rendering="geometricPrecision" transform="matrix(1,0,0,1,-245,-226)" stroke="url(#linearGradient5)">
      <path d="M279.2451 329.8464 L392.1728 329.8464 L373.6957 402.3056 L260.768 402.3056 Z" stroke="none" clip-path="url(#clipPath2)"/>
    </g>
    <g text-rendering="geometricPrecision" stroke-miterlimit="1.45" shape-rendering="geometricPrecision" transform="matrix(1,0,0,1,-245,-226)" stroke-linecap="butt">
      <path fill="none" d="M279.2451 329.8464 L392.1728 329.8464 L373.6957 402.3056 L260.768 402.3056 Z" clip-path="url(#clipPath2)"/>
      <text x="289.9724" xml:space="preserve" y="363.4393" clip-path="url(#clipPath2)" font-family="sans-serif" stroke="none">L'admin avvia</text>
      <text x="291.4606" xml:space="preserve" y="378.1404" clip-path="url(#clipPath2)" font-family="sans-serif" stroke="none">il programma</text>
    </g>
    <g fill="url(#linearGradient6)" text-rendering="geometricPrecision" shape-rendering="geometricPrecision" transform="matrix(1,0,0,1,-245,-226)" stroke="url(#linearGradient6)">
      <path d="M790.1037 640.621 L855.8061 676.8506 L790.1037 713.0802 L724.4013 676.8506 Z" stroke="none" clip-path="url(#clipPath2)"/>
    </g>
    <g text-rendering="geometricPrecision" stroke-miterlimit="1.45" shape-rendering="geometricPrecision" transform="matrix(1,0,0,1,-245,-226)" stroke-linecap="butt">
      <path fill="none" d="M790.1037 640.621 L855.8061 676.8506 L790.1037 713.0802 L724.4013 676.8506 Z" clip-path="url(#clipPath2)"/>
      <text x="760.7512" xml:space="preserve" y="674.2139" clip-path="url(#clipPath2)" font-family="sans-serif" stroke="none">Si vogliono</text>
      <text x="748.4142" xml:space="preserve" y="688.915" clip-path="url(#clipPath2)" font-family="sans-serif" stroke="none">inviare notifiche</text>
    </g>
    <g fill="url(#linearGradient7)" text-rendering="geometricPrecision" shape-rendering="geometricPrecision" transform="matrix(1,0,0,1,-245,-226)" stroke="url(#linearGradient7)">
      <path d="M724.4013 746.4772 L855.8061 746.4772 L855.8061 818.9363 L724.4013 818.9363 Z" stroke="none" clip-path="url(#clipPath2)"/>
    </g>
    <g text-rendering="geometricPrecision" stroke-miterlimit="1.45" shape-rendering="geometricPrecision" transform="matrix(1,0,0,1,-245,-226)" stroke-linecap="butt">
      <path fill="none" d="M724.4013 746.4772 L855.8061 746.4772 L855.8061 818.9363 L724.4013 818.9363 Z" clip-path="url(#clipPath2)"/>
      <text x="756.0842" xml:space="preserve" y="780.0701" clip-path="url(#clipPath2)" font-family="sans-serif" stroke="none">Procedura di</text>
      <text x="753.7492" xml:space="preserve" y="794.7712" clip-path="url(#clipPath2)" font-family="sans-serif" stroke="none">invio notifiche</text>
    </g>
    <g fill="url(#linearGradient8)" text-rendering="geometricPrecision" shape-rendering="geometricPrecision" transform="matrix(1,0,0,1,-245,-226)" stroke="url(#linearGradient8)">
      <path d="M724.4013 534.7648 L855.8061 534.7648 L855.8061 607.224 L724.4013 607.224 Z" stroke="none" clip-path="url(#clipPath2)"/>
    </g>
    <g text-rendering="geometricPrecision" stroke-miterlimit="1.45" shape-rendering="geometricPrecision" transform="matrix(1,0,0,1,-245,-226)" stroke-linecap="butt">
      <path fill="none" d="M724.4013 534.7648 L855.8061 534.7648 L855.8061 607.224 L724.4013 607.224 Z" clip-path="url(#clipPath2)"/>
      <text x="744.0754" xml:space="preserve" y="568.3577" clip-path="url(#clipPath2)" font-family="sans-serif" stroke="none">Scelta operazioni</text>
      <text x="763.7541" xml:space="preserve" y="583.0588" clip-path="url(#clipPath2)" font-family="sans-serif" stroke="none">disponibili</text>
    </g>
    <g text-rendering="geometricPrecision" stroke-miterlimit="1.45" shape-rendering="geometricPrecision" font-family="sans-serif" transform="matrix(1,0,0,1,-245,-226)" stroke-linecap="butt">
      <text x="864.9414" xml:space="preserve" y="669.199" clip-path="url(#clipPath2)" stroke="none">No</text>
    </g>
    <g text-rendering="geometricPrecision" stroke-miterlimit="1.45" shape-rendering="geometricPrecision" font-family="sans-serif" transform="matrix(1,0,0,1,-245,-226)" stroke-linecap="butt">
      <text x="446.6572" xml:space="preserve" y="1089.6727" clip-path="url(#clipPath2)" stroke="none">Sì</text>
    </g>
    <g text-rendering="geometricPrecision" stroke-miterlimit="1.45" shape-rendering="geometricPrecision" font-family="sans-serif" transform="matrix(1,0,0,1,-245,-226)" stroke-linecap="butt">
      <text x="341.0816" xml:space="preserve" y="1159.5421" clip-path="url(#clipPath2)" stroke="none">No</text>
    </g>
    <g fill="url(#linearGradient9)" text-rendering="geometricPrecision" shape-rendering="geometricPrecision" transform="matrix(1,0,0,1,-245,-226)" stroke="url(#linearGradient9)">
      <path d="M549.767 640.621 L615.4694 676.8506 L549.767 713.0802 L484.0646 676.8506 Z" stroke="none" clip-path="url(#clipPath2)"/>
    </g>
    <g text-rendering="geometricPrecision" stroke-miterlimit="1.45" shape-rendering="geometricPrecision" transform="matrix(1,0,0,1,-245,-226)" stroke-linecap="butt">
      <path fill="none" d="M549.767 640.621 L615.4694 676.8506 L549.767 713.0802 L484.0646 676.8506 Z" clip-path="url(#clipPath2)"/>
      <text x="520.4144" xml:space="preserve" y="674.2139" clip-path="url(#clipPath2)" font-family="sans-serif" stroke="none">Si vogliono</text>
      <text x="509.7475" xml:space="preserve" y="688.915" clip-path="url(#clipPath2)" font-family="sans-serif" stroke="none">gestire i client?</text>
    </g>
    <g fill="url(#linearGradient10)" text-rendering="geometricPrecision" shape-rendering="geometricPrecision" transform="matrix(1,0,0,1,-245,-226)" stroke="url(#linearGradient10)">
      <path d="M484.0646 534.7648 L615.4694 534.7648 L615.4694 607.224 L484.0646 607.224 Z" stroke="none" clip-path="url(#clipPath2)"/>
    </g>
    <g text-rendering="geometricPrecision" stroke-miterlimit="1.45" shape-rendering="geometricPrecision" transform="matrix(1,0,0,1,-245,-226)" stroke-linecap="butt">
      <path fill="none" d="M484.0646 534.7648 L615.4694 534.7648 L615.4694 607.224 L484.0646 607.224 Z" clip-path="url(#clipPath2)"/>
      <text x="503.7387" xml:space="preserve" y="568.3577" clip-path="url(#clipPath2)" font-family="sans-serif" stroke="none">Scelta operazioni</text>
      <text x="523.4174" xml:space="preserve" y="583.0588" clip-path="url(#clipPath2)" font-family="sans-serif" stroke="none">disponibili</text>
    </g>
    <g text-rendering="geometricPrecision" stroke-miterlimit="1.45" shape-rendering="geometricPrecision" font-family="sans-serif" transform="matrix(1,0,0,1,-245,-226)" stroke-linecap="butt">
      <text x="557.9323" xml:space="preserve" y="733.1873" clip-path="url(#clipPath2)" stroke="none">Sì</text>
    </g>
    <g fill="url(#linearGradient11)" text-rendering="geometricPrecision" shape-rendering="geometricPrecision" transform="matrix(1,0,0,1,-245,-226)" stroke="url(#linearGradient11)">
      <path d="M366.2016 958.1895 L431.904 994.4191 L366.2016 1030.6487 L300.4991 994.4191 Z" stroke="none" clip-path="url(#clipPath2)"/>
    </g>
    <g text-rendering="geometricPrecision" stroke-miterlimit="1.45" shape-rendering="geometricPrecision" transform="matrix(1,0,0,1,-245,-226)" stroke-linecap="butt">
      <path fill="none" d="M366.2016 958.1895 L431.904 994.4191 L366.2016 1030.6487 L300.4991 994.4191 Z" clip-path="url(#clipPath2)"/>
      <text x="324.5121" xml:space="preserve" y="999.133" clip-path="url(#clipPath2)" font-family="sans-serif" stroke="none">Fase di analisi?</text>
    </g>
    <g fill="url(#linearGradient12)" text-rendering="geometricPrecision" shape-rendering="geometricPrecision" transform="matrix(1,0,0,1,-245,-226)" stroke="url(#linearGradient12)">
      <path d="M484.0646 852.3334 L615.4694 852.3334 L615.4694 924.7925 L484.0646 924.7925 Z" stroke="none" clip-path="url(#clipPath2)"/>
    </g>
    <g text-rendering="geometricPrecision" stroke-miterlimit="1.45" shape-rendering="geometricPrecision" transform="matrix(1,0,0,1,-245,-226)" stroke-linecap="butt">
      <path fill="none" d="M484.0646 852.3334 L615.4694 852.3334 L615.4694 924.7925 L484.0646 924.7925 Z" clip-path="url(#clipPath2)"/>
      <text x="498.4096" xml:space="preserve" y="893.2768" clip-path="url(#clipPath2)" font-family="sans-serif" stroke="none">Modifica dei moduli</text>
    </g>
    <g fill="url(#linearGradient13)" text-rendering="geometricPrecision" shape-rendering="geometricPrecision" transform="matrix(1,0,0,1,-245,-226)" stroke="url(#linearGradient13)">
      <path d="M484.0646 746.4772 L615.4694 746.4772 L615.4694 818.9363 L484.0646 818.9363 Z" stroke="none" clip-path="url(#clipPath2)"/>
    </g>
    <g text-rendering="geometricPrecision" stroke-miterlimit="1.45" shape-rendering="geometricPrecision" transform="matrix(1,0,0,1,-245,-226)" stroke-linecap="butt">
      <path fill="none" d="M484.0646 746.4772 L615.4694 746.4772 L615.4694 818.9363 L484.0646 818.9363 Z" clip-path="url(#clipPath2)"/>
      <text x="507.7406" xml:space="preserve" y="787.4207" clip-path="url(#clipPath2)" font-family="sans-serif" stroke="none">Selezione client</text>
    </g>
    <g fill="url(#linearGradient14)" text-rendering="geometricPrecision" shape-rendering="geometricPrecision" transform="matrix(1,0,0,1,-245,-226)" stroke="url(#linearGradient14)">
      <path d="M484.0646 958.1895 L615.4694 958.1895 L615.4694 1030.6487 L484.0646 1030.6487 Z" stroke="none" clip-path="url(#clipPath2)"/>
    </g>
    <g text-rendering="geometricPrecision" stroke-miterlimit="1.45" shape-rendering="geometricPrecision" transform="matrix(1,0,0,1,-245,-226)" stroke-linecap="butt">
      <path fill="none" d="M484.0646 958.1895 L615.4694 958.1895 L615.4694 1030.6487 L484.0646 1030.6487 Z" clip-path="url(#clipPath2)"/>
      <text x="500.0736" xml:space="preserve" y="999.133" clip-path="url(#clipPath2)" font-family="sans-serif" stroke="none">Modifica della fase</text>
    </g>
    <g text-rendering="geometricPrecision" stroke-miterlimit="1.45" shape-rendering="geometricPrecision" font-family="sans-serif" transform="matrix(1,0,0,1,-245,-226)" stroke-linecap="butt">
      <text x="374.4543" xml:space="preserve" y="946.2049" clip-path="url(#clipPath2)" stroke="none">No</text>
    </g>
    <g fill="url(#linearGradient15)" text-rendering="geometricPrecision" shape-rendering="geometricPrecision" transform="matrix(1,0,0,1,-245,-226)" stroke="url(#linearGradient15)">
      <path d="M366.2016 1060.6487 L431.904 1096.8783 L366.2016 1133.1079 L300.4991 1096.8783 Z" stroke="none" clip-path="url(#clipPath2)"/>
    </g>
    <g text-rendering="geometricPrecision" stroke-miterlimit="1.45" shape-rendering="geometricPrecision" transform="matrix(1,0,0,1,-245,-226)" stroke-linecap="butt">
      <path fill="none" d="M366.2016 1060.6487 L431.904 1096.8783 L366.2016 1133.1079 L300.4991 1096.8783 Z" clip-path="url(#clipPath2)"/>
      <text x="348.8578" xml:space="preserve" y="1086.891" clip-path="url(#clipPath2)" font-family="sans-serif" stroke="none">Nuove</text>
      <text x="334.5141" xml:space="preserve" y="1101.5922" clip-path="url(#clipPath2)" font-family="sans-serif" stroke="none">connessioni</text>
      <text x="340.183" xml:space="preserve" y="1116.2933" clip-path="url(#clipPath2)" font-family="sans-serif" stroke="none">sospette?</text>
    </g>
    <g fill="url(#linearGradient16)" text-rendering="geometricPrecision" shape-rendering="geometricPrecision" transform="matrix(1,0,0,1,-245,-226)" stroke="url(#linearGradient16)">
      <path d="M300.4991 1176.5486 L431.904 1176.5486 L431.904 1249.0078 L300.4991 1249.0078 Z" stroke="none" clip-path="url(#clipPath2)"/>
    </g>
    <g text-rendering="geometricPrecision" stroke-miterlimit="1.45" shape-rendering="geometricPrecision" transform="matrix(1,0,0,1,-245,-226)" stroke-linecap="butt">
      <path fill="none" d="M300.4991 1176.5486 L431.904 1176.5486 L431.904 1249.0078 L300.4991 1249.0078 Z" clip-path="url(#clipPath2)"/>
      <text x="313.4994" xml:space="preserve" y="1210.1415" clip-path="url(#clipPath2)" font-family="sans-serif" stroke="none">Aggiunta al modello</text>
      <text x="340.8656" xml:space="preserve" y="1224.8427" clip-path="url(#clipPath2)" font-family="sans-serif" stroke="none">(whitelist)</text>
    </g>
    <g fill="url(#linearGradient17)" text-rendering="geometricPrecision" shape-rendering="geometricPrecision" transform="matrix(1,0,0,1,-245,-226)" stroke="url(#linearGradient17)">
      <path d="M484.0646 1060.6487 L615.4694 1060.6487 L615.4694 1133.1079 L484.0646 1133.1079 Z" stroke="none" clip-path="url(#clipPath2)"/>
    </g>
    <g text-rendering="geometricPrecision" stroke-miterlimit="1.45" shape-rendering="geometricPrecision" transform="matrix(1,0,0,1,-245,-226)" stroke-linecap="butt">
      <path fill="none" d="M484.0646 1060.6487 L615.4694 1060.6487 L615.4694 1133.1079 L484.0646 1133.1079 Z" clip-path="url(#clipPath2)"/>
      <text x="513.7494" xml:space="preserve" y="1094.2416" clip-path="url(#clipPath2)" font-family="sans-serif" stroke="none">Analisi diretta</text>
      <text x="526.0863" xml:space="preserve" y="1108.9427" clip-path="url(#clipPath2)" font-family="sans-serif" stroke="none">dal client</text>
    </g>
    <g text-rendering="geometricPrecision" stroke-miterlimit="1.45" shape-rendering="geometricPrecision" font-family="sans-serif" transform="matrix(1,0,0,1,-245,-226)" stroke-linecap="butt">
      <text x="374.9567" xml:space="preserve" y="1050.3625" clip-path="url(#clipPath2)" stroke="none">Sì</text>
    </g>
    <g text-rendering="geometricPrecision" stroke-miterlimit="1.45" shape-rendering="geometricPrecision" font-family="sans-serif" transform="matrix(1,0,0,1,-245,-226)" stroke-linecap="butt">
      <text x="462.6284" xml:space="preserve" y="669.3469" clip-path="url(#clipPath2)" stroke="none">No</text>
    </g>
    <g text-rendering="geometricPrecision" stroke-miterlimit="1.45" shape-rendering="geometricPrecision" font-family="sans-serif" transform="matrix(1,0,0,1,-245,-226)" stroke-linecap="butt">
      <text x="683.1219" xml:space="preserve" y="422.0195" clip-path="url(#clipPath2)" stroke="none">Sì</text>
    </g>
    <g text-rendering="geometricPrecision" stroke-miterlimit="1.45" shape-rendering="geometricPrecision" transform="matrix(1,0,0,1,-245,-226)" stroke-linecap="butt">
      <path fill="none" d="M561.4193 366.076 L600.0768 366.076" clip-path="url(#clipPath2)"/>
    </g>
    <g text-rendering="geometricPrecision" stroke-miterlimit="1.45" shape-rendering="geometricPrecision" transform="matrix(1,0,0,1,-245,-226)" stroke-linecap="butt">
      <path d="M608.0768 366.076 L596.0768 361.076 L599.0768 366.076 L596.0768 371.076 Z" stroke="none" clip-path="url(#clipPath2)"/>
      <path fill="none" d="M673.7703 329.8372 L673.7703 294.782 L495.7472 294.782 L495.7472 321.8372" clip-path="url(#clipPath2)"/>
      <path d="M495.7472 329.8372 L500.7472 317.8372 L495.7472 320.8372 L490.7472 317.8372 Z" clip-path="url(#clipPath2)" stroke="none"/>
      <path fill="none" d="M673.7703 402.3219 L673.7703 424.2925" clip-path="url(#clipPath2)"/>
      <path d="M673.7703 432.2925 L678.7703 420.2925 L673.7703 423.2925 L668.7703 420.2925 Z" clip-path="url(#clipPath2)" stroke="none"/>
      <path fill="none" d="M326.4704 286.1548 L326.4704 321.8227" clip-path="url(#clipPath2)"/>
      <path d="M326.4704 329.8227 L331.4704 317.8227 L326.4704 320.8227 L321.4704 317.8227 Z" clip-path="url(#clipPath2)" stroke="none"/>
      <path fill="none" d="M382.9649 366.076 L422.0218 366.076" clip-path="url(#clipPath2)"/>
      <path d="M430.0218 366.076 L418.0218 361.076 L421.0218 366.076 L418.0218 371.076 Z" clip-path="url(#clipPath2)" stroke="none"/>
      <path fill="none" d="M790.1037 713.0577 L790.1037 738.4879" clip-path="url(#clipPath2)"/>
      <path d="M790.1037 746.4879 L795.1037 734.4879 L790.1037 737.4879 L785.1037 734.4879 Z" clip-path="url(#clipPath2)" stroke="none"/>
      <path fill="none" d="M739.4635 468.5352 L790.1037 468.5352 L790.1037 526.7485" clip-path="url(#clipPath2)"/>
      <path d="M790.1037 534.7485 L795.1037 522.7485 L790.1037 525.7485 L785.1037 522.7485 Z" clip-path="url(#clipPath2)" stroke="none"/>
      <path fill="none" d="M855.7841 676.8506 L892.2399 676.8506 L892.2399 570.9944 L863.7841 570.9944" clip-path="url(#clipPath2)"/>
      <path d="M855.7841 570.9944 L867.7841 575.9944 L864.7841 570.9944 L867.7841 565.9944 Z" clip-path="url(#clipPath2)" stroke="none"/>
      <path fill="none" d="M790.1037 818.909 L790.1037 844.1335 L691.9986 844.1335 L691.9986 570.9944 L716.4289 570.9944" clip-path="url(#clipPath2)"/>
      <path d="M724.4289 570.9944 L712.4289 565.9944 L715.4289 570.9944 L712.4289 575.9944 Z" clip-path="url(#clipPath2)" stroke="none"/>
      <path fill="none" d="M790.1037 607.2015 L790.1037 632.6317" clip-path="url(#clipPath2)"/>
      <path d="M790.1037 640.6317 L795.1037 628.6317 L790.1037 631.6317 L785.1037 628.6317 Z" clip-path="url(#clipPath2)" stroke="none"/>
      <path fill="none" d="M484.0218 676.8506 L365.9497 676.8506 L378.326 676.8506 L373.9497 676.8506" clip-path="url(#clipPath2)"/>
      <path d="M365.9497 676.8506 L377.9497 681.8506 L374.9497 676.8506 L377.9497 671.8506 Z" clip-path="url(#clipPath2)" stroke="none"/>
      <path fill="none" d="M608.0449 468.5352 L549.767 468.5352 L549.767 526.7485" clip-path="url(#clipPath2)"/>
      <path d="M549.767 534.7485 L554.767 522.7485 L549.767 525.7485 L544.767 522.7485 Z" clip-path="url(#clipPath2)" stroke="none"/>
      <path fill="none" d="M549.767 607.2015 L549.767 632.6317" clip-path="url(#clipPath2)"/>
      <path d="M549.767 640.6317 L554.767 628.6317 L549.767 631.6317 L544.767 628.6317 Z" clip-path="url(#clipPath2)" stroke="none"/>
      <path fill="none" d="M366.2016 958.212 L366.2016 570.9944 L476.0222 570.9944" clip-path="url(#clipPath2)"/>
      <path d="M484.0222 570.9944 L472.0222 565.9944 L475.0222 570.9944 L472.0222 575.9944 Z" clip-path="url(#clipPath2)" stroke="none"/>
      <path fill="none" d="M549.767 713.0577 L549.767 738.4879" clip-path="url(#clipPath2)"/>
      <path d="M549.767 746.4879 L554.767 734.4879 L549.767 737.4879 L544.767 734.4879 Z" clip-path="url(#clipPath2)" stroke="none"/>
      <path fill="none" d="M549.767 818.9139 L549.767 844.3441" clip-path="url(#clipPath2)"/>
      <path d="M549.767 852.3441 L554.767 840.3441 L549.767 843.3441 L544.767 840.3441 Z" clip-path="url(#clipPath2)" stroke="none"/>
      <path fill="none" d="M549.767 924.7701 L549.767 950.2003" clip-path="url(#clipPath2)"/>
      <path d="M549.767 958.2003 L554.767 946.2003 L549.767 949.2003 L544.767 946.2003 Z" clip-path="url(#clipPath2)" stroke="none"/>
      <path fill="none" d="M484.0222 994.4191 L439.9292 994.4191" clip-path="url(#clipPath2)"/>
      <path d="M431.9292 994.4191 L443.9292 999.4191 L440.9292 994.4191 L443.9292 989.4191 Z" clip-path="url(#clipPath2)" stroke="none"/>
      <path fill="none" d="M366.2016 1030.665 L366.2016 1052.6356" clip-path="url(#clipPath2)"/>
      <path d="M366.2016 1060.6356 L371.2016 1048.6356 L366.2016 1051.6356 L361.2016 1048.6356 Z" clip-path="url(#clipPath2)" stroke="none"/>
      <path fill="none" d="M366.2016 1133.1254 L366.2016 1168.5688" clip-path="url(#clipPath2)"/>
      <path d="M366.2016 1176.5688 L371.2016 1164.5688 L366.2016 1167.5688 L361.2016 1164.5688 Z" clip-path="url(#clipPath2)" stroke="none"/>
      <path fill="none" d="M300.5226 1212.7782 L263.3254 1212.7782 L263.3254 994.4191 L292.5226 994.4191" clip-path="url(#clipPath2)"/>
      <path d="M300.5226 994.4191 L288.5226 989.4191 L291.5226 994.4191 L288.5226 999.4191 Z" clip-path="url(#clipPath2)" stroke="none"/>
      <path fill="none" d="M431.9463 1096.8783 L476.0394 1096.8783" clip-path="url(#clipPath2)"/>
      <path d="M484.0394 1096.8783 L472.0394 1091.8783 L475.0394 1096.8783 L472.0394 1101.8783 Z" clip-path="url(#clipPath2)" stroke="none"/>
      <path fill="none" d="M615.4905 1096.8783 L658.0112 1096.8783 L658.0112 570.9944 L623.4905 570.9944" clip-path="url(#clipPath2)"/>
      <path d="M615.4905 570.9944 L627.4905 575.9944 L624.4905 570.9944 L627.4905 565.9944 Z" clip-path="url(#clipPath2)" stroke="none"/>
    </g>
  </g>
</svg>
